<svg xmlns="http://www.w3.org/2000/svg" xmlns:xlink="http://www.w3.org/1999/xlink" style="margin:auto;background:#00001a;display:block;z-index:1;position:relative" width="1258" height="806" preserveAspectRatio="xMidYMid" viewBox="0 0 1258 806">
<g transform="translate(629,403) scale(1,1) translate(-629,-403)"><defs>
  <path id="path-2xw57qwpcls-1" d="M-35 -35L35 -35L35 35L-35 35Z" fill="none" stroke="inherit" stroke-width="3.571428571428571" transform="scale(0.14)"></path>
  <path id="path-2xw57qwpcls-2" d="M0 -37A37 37 0 0 1 0 37A37 37 0 0 1 0 -37" fill="none" stroke="inherit" stroke-width="3.571428571428571" transform="scale(0.14)"></path>
  <path id="path-2xw57qwpcls-3" d="M0 -34.641L40 34.641L-40 34.641Z" fill="none" stroke="inherit" stroke-width="3.571428571428571" transform="scale(0.14)"></path>
</defs><path id="path0" d="M 72.80800925755594 421.5178176849253
c 0 43.48926516625796 -10.640990413020562 12.491597441371967 -23.13258785439253 12.491597441371967
S 26.542833548770883 465.00708285118327 26.542833548770883 421.5178176849253
s 10.640990413020562 -12.491597441371967 23.13258785439253 -12.491597441371967
S 72.80800925755594 378.02855251866737 72.80800925755594 421.5178176849253
z" fill="none" stroke="none"></path>
<use xlink:href="#path-2xw57qwpcls-3" x="0" y="0" stroke="#ffffff">
  <animateMotion begin="-2.0755602098255688s" dur="30.483757155537088s" keyPoints="1;0" keyTimes="0;1" repeatCount="indefinite" calcMode="linear">
    <mpath xlink:href="#path0"></mpath>
  </animateMotion>
</use><path id="path1" d="M 108.99569159870717 569.3144515338367
c 0 63.16136215732764 -15.454375847005696 18.142093385615386 -33.59646923262108 18.142093385615386
S 41.80275313346501 632.4758136911644 41.80275313346501 569.3144515338367
s 15.454375847005696 -18.142093385615386 33.59646923262108 -18.142093385615386
S 108.99569159870717 506.1530893765091 108.99569159870717 569.3144515338367
z" fill="none" stroke="none"></path>
<use xlink:href="#path-2xw57qwpcls-2" x="0" y="0" stroke="#ffffff">
  <animateMotion begin="-9.4694920293599s" dur="38.52137635374811s" keyPoints="1;0" keyTimes="0;1" repeatCount="indefinite" calcMode="linear">
    <mpath xlink:href="#path1"></mpath>
  </animateMotion>
</use><path id="path2" d="M 135.89830088242894 759.379338605645
c 0 49.14735026539793 -12.025415490469706 14.116792097507918 -26.142207587977623 14.116792097507918
S 83.6138857064737 808.5266888710429 83.6138857064737 759.379338605645
s 12.025415490469706 -14.116792097507918 26.142207587977623 -14.116792097507918
S 135.89830088242894 710.2319883402471 135.89830088242894 759.379338605645
z" fill="none" stroke="none"></path>
<use xlink:href="#path-2xw57qwpcls-1" x="0" y="0" stroke="#ffffff">
  <animateMotion begin="-0.8609170939366306s" dur="36.185373537226866s" keyPoints="0;1" keyTimes="0;1" repeatCount="indefinite" calcMode="linear">
    <mpath xlink:href="#path2"></mpath>
  </animateMotion>
</use><path id="path3" d="M 202.34334285877352 313.5505697133164
c 0 36.49032563838067 -8.928483932795269 10.481263747194449 -19.409747679989717 10.481263747194449
S 163.52384749879408 350.0408953516971 163.52384749879408 313.5505697133164
s 8.928483932795269 -10.481263747194449 19.409747679989717 -10.481263747194449
S 202.34334285877352 277.0602440749357 202.34334285877352 313.5505697133164
z" fill="none" stroke="none"></path>
<use xlink:href="#path-2xw57qwpcls-3" x="0" y="0" stroke="#ffffff">
  <animateMotion begin="-1.2527343297236615s" dur="39.48566429081126s" keyPoints="1;0" keyTimes="0;1" repeatCount="indefinite" calcMode="linear">
    <mpath xlink:href="#path3"></mpath>
  </animateMotion>
</use><path id="path4" d="M 230.3360926673625 307.05011288716946
c 0 52.95670290751034 -12.957491136944018 15.210967856412546 -28.168458993356566 15.210967856412546
S 173.9991746806494 360.0068157946798 173.9991746806494 307.05011288716946
s 12.957491136944018 -15.210967856412546 28.168458993356566 -15.210967856412546
S 230.3360926673625 254.09340997965913 230.3360926673625 307.05011288716946
z" fill="none" stroke="none"></path>
<use xlink:href="#path-2xw57qwpcls-2" x="0" y="0" stroke="#ffffff">
  <animateMotion begin="-3.8545212114209693s" dur="20.75130098306035s" keyPoints="0;1" keyTimes="0;1" repeatCount="indefinite" calcMode="linear">
    <mpath xlink:href="#path4"></mpath>
  </animateMotion>
</use><path id="path5" d="M 289.3272219027774 631.2658214664086
c 0 46.873588607744914 -11.46906955295886 13.463690344777794 -24.932759897736652 13.463690344777794
S 239.4617021073041 678.1394100741535 239.4617021073041 631.2658214664086
s 11.46906955295886 -13.463690344777794 24.932759897736652 -13.463690344777794
S 289.3272219027774 584.3922328586638 289.3272219027774 631.2658214664086
z" fill="none" stroke="none"></path>
<use xlink:href="#path-2xw57qwpcls-3" x="0" y="0" stroke="#ffffff">
  <animateMotion begin="-7.183792390866799s" dur="28.183556133609805s" keyPoints="0;1" keyTimes="0;1" repeatCount="indefinite" calcMode="linear">
    <mpath xlink:href="#path5"></mpath>
  </animateMotion>
</use><path id="path6" d="M 351.0701905487472 162.4408444882136
c 0 43.22385383698038 -10.576049343090943 12.415362272324153 -22.991411615415096 12.415362272324153
S 305.087367317917 205.66469832519397 305.087367317917 162.4408444882136
s 10.576049343090943 -12.415362272324153 22.991411615415096 -12.415362272324153
S 351.0701905487472 119.21699065123322 351.0701905487472 162.4408444882136
z" fill="none" stroke="none"></path>
<use xlink:href="#path-2xw57qwpcls-3" x="0" y="0" stroke="#ffffff">
  <animateMotion begin="-1.2467838205705584s" dur="24.64038154026495s" keyPoints="0;1" keyTimes="0;1" repeatCount="indefinite" calcMode="linear">
    <mpath xlink:href="#path6"></mpath>
  </animateMotion>
</use><path id="path7" d="M 361.03315568024436 362.5984441524047
c 0 35.274766521523475 -8.631059893564254 10.132113788097168 -18.76317368166142 10.132113788097168
S 323.5068083169215 397.87321067392816 323.5068083169215 362.5984441524047
s 8.631059893564254 -10.132113788097168 18.76317368166142 -10.132113788097168
S 361.03315568024436 327.3236776308812 361.03315568024436 362.5984441524047
z" fill="none" stroke="none"></path>
<use xlink:href="#path-2xw57qwpcls-3" x="0" y="0" stroke="#ffffff">
  <animateMotion begin="-2.14448002763566s" dur="35.23082489651976s" keyPoints="1;0" keyTimes="0;1" repeatCount="indefinite" calcMode="linear">
    <mpath xlink:href="#path7"></mpath>
  </animateMotion>
</use><path id="path8" d="M 423.75375744260424 399.41051111861907
c 0 39.54871749236807 -9.67681385451559 11.359738003127 -21.03655185764259 11.359738003127
S 381.6806537273191 438.9592286109871 381.6806537273191 399.41051111861907
s 9.67681385451559 -11.359738003127 21.03655185764259 -11.359738003127
S 423.75375744260424 359.861793626251 423.75375744260424 399.41051111861907
z" fill="none" stroke="none"></path>
<use xlink:href="#path-2xw57qwpcls-1" x="0" y="0" stroke="#ffffff">
  <animateMotion begin="-9.232412213356387s" dur="32.56820932427081s" keyPoints="0;1" keyTimes="0;1" repeatCount="indefinite" calcMode="linear">
    <mpath xlink:href="#path8"></mpath>
  </animateMotion>
</use><path id="path9" d="M 484.6620537079332 106.545493579386
c 0 54.09889643253 -13.236964020725424 15.539044719982021 -28.776008740707443 15.539044719982021
S 427.11003622651833 160.64439001191602 427.11003622651833 106.545493579386
s 13.236964020725424 -15.539044719982021 28.776008740707443 -15.539044719982021
S 484.6620537079332 52.44659714685601 484.6620537079332 106.545493579386
z" fill="none" stroke="none"></path>
<use xlink:href="#path-2xw57qwpcls-2" x="0" y="0" stroke="#ffffff">
  <animateMotion begin="-4.009107802093952s" dur="39.68935987653258s" keyPoints="1;0" keyTimes="0;1" repeatCount="indefinite" calcMode="linear">
    <mpath xlink:href="#path9"></mpath>
  </animateMotion>
</use><path id="path10" d="M 531.745549812109 756.97624548665
c 0 54.44547714743375 -13.321765685010384 15.6385944997948 -28.960360184805186 15.6385944997948
S 473.8248294424986 811.4217226340837 473.8248294424986 756.97624548665
s 13.321765685010384 -15.6385944997948 28.960360184805186 -15.6385944997948
S 531.745549812109 702.5307683392163 531.745549812109 756.97624548665
z" fill="none" stroke="none"></path>
<use xlink:href="#path-2xw57qwpcls-2" x="0" y="0" stroke="#ffffff">
  <animateMotion begin="-1.2562052473319785s" dur="29.33639634720583s" keyPoints="1;0" keyTimes="0;1" repeatCount="indefinite" calcMode="linear">
    <mpath xlink:href="#path10"></mpath>
  </animateMotion>
</use><path id="path11" d="M 534.9149051244627 731.2162091224459
c 0 23.80269657188759 -5.824064054823559 6.836944760010266 -12.661008814833824 6.836944760010266
S 509.59288749479504 755.0189056943335 509.59288749479504 731.2162091224459
s 5.824064054823559 -6.836944760010266 12.661008814833824 -6.836944760010266
S 534.9149051244627 707.4135125505583 534.9149051244627 731.2162091224459
z" fill="none" stroke="none"></path>
<use xlink:href="#path-2xw57qwpcls-1" x="0" y="0" stroke="#ffffff">
  <animateMotion begin="-3.764813350309344s" dur="22.029499447141788s" keyPoints="0;1" keyTimes="0;1" repeatCount="indefinite" calcMode="linear">
    <mpath xlink:href="#path11"></mpath>
  </animateMotion>
</use><path id="path12" d="M 626.2987074816743 553.5896652843953
c 0 42.98204513987393 -10.516883385288303 12.345906582729747 -22.86278996801805 12.345906582729747
S 580.5731275456382 596.5717104242692 580.5731275456382 553.5896652843953
s 10.516883385288303 -12.345906582729747 22.86278996801805 -12.345906582729747
S 626.2987074816743 510.6076201445214 626.2987074816743 553.5896652843953
z" fill="none" stroke="none"></path>
<use xlink:href="#path-2xw57qwpcls-1" x="0" y="0" stroke="#ffffff">
  <animateMotion begin="-0.8472733878697336s" dur="30.450071515546043s" keyPoints="0;1" keyTimes="0;1" repeatCount="indefinite" calcMode="linear">
    <mpath xlink:href="#path12"></mpath>
  </animateMotion>
</use><path id="path13" d="M 655.1122940753644 536.1830915427936
c 0 31.48734801239027 -7.70435110941464 9.044238258878057 -16.7485893682927 9.044238258878057
S 621.6151153387789 567.6704395551839 621.6151153387789 536.1830915427936
s 7.70435110941464 -9.044238258878057 16.7485893682927 -9.044238258878057
S 655.1122940753644 504.6957435304033 655.1122940753644 536.1830915427936
z" fill="none" stroke="none"></path>
<use xlink:href="#path-2xw57qwpcls-2" x="0" y="0" stroke="#ffffff">
  <animateMotion begin="-6.513595753549901s" dur="22.963083517868675s" keyPoints="1;0" keyTimes="0;1" repeatCount="indefinite" calcMode="linear">
    <mpath xlink:href="#path13"></mpath>
  </animateMotion>
</use><path id="path14" d="M 669.9621057510676 613.7066012823524
c 0 27.12374260179151 -6.636660423842603 7.790862236684796 -14.427522660527398 7.790862236684796
S 641.1070604300128 640.8303438841439 641.1070604300128 613.7066012823524
s 6.636660423842603 -7.790862236684796 14.427522660527398 -7.790862236684796
S 669.9621057510676 586.5828586805609 669.9621057510676 613.7066012823524
z" fill="none" stroke="none"></path>
<use xlink:href="#path-2xw57qwpcls-1" x="0" y="0" stroke="#ffffff">
  <animateMotion begin="-1.2794997441402889s" dur="22.704189129994617s" keyPoints="1;0" keyTimes="0;1" repeatCount="indefinite" calcMode="linear">
    <mpath xlink:href="#path14"></mpath>
  </animateMotion>
</use><path id="path15" d="M 744.5254877642403 104.30220844403037
c 0 31.93573572177915 -7.8140629957544725 9.17303047327699 -16.987093469031464 9.17303047327699
S 710.5513008261773 136.23794416580952 710.5513008261773 104.30220844403037
s 7.8140629957544725 -9.17303047327699 16.987093469031464 -9.17303047327699
S 744.5254877642403 72.36647272225122 744.5254877642403 104.30220844403037
z" fill="none" stroke="none"></path>
<use xlink:href="#path-2xw57qwpcls-1" x="0" y="0" stroke="#ffffff">
  <animateMotion begin="-7.623115066689737s" dur="32.382302472114s" keyPoints="0;1" keyTimes="0;1" repeatCount="indefinite" calcMode="linear">
    <mpath xlink:href="#path15"></mpath>
  </animateMotion>
</use><path id="path16" d="M 796.5029007513467 670.6762385098551
c 0 59.403111450172965 -14.53480386546785 17.06259584207096 -31.59739970753881 17.06259584207096
S 733.3081013362691 730.0793499600281 733.3081013362691 670.6762385098551
s 14.53480386546785 -17.06259584207096 31.59739970753881 -17.06259584207096
S 796.5029007513467 611.2731270596821 796.5029007513467 670.6762385098551
z" fill="none" stroke="none"></path>
<use xlink:href="#path-2xw57qwpcls-3" x="0" y="0" stroke="#ffffff">
  <animateMotion begin="-4.078190810192823s" dur="39.17633719818442s" keyPoints="0;1" keyTimes="0;1" repeatCount="indefinite" calcMode="linear">
    <mpath xlink:href="#path16"></mpath>
  </animateMotion>
</use><path id="path17" d="M 814.6682051763078 712.3933532325253
c 0 41.682619787503725 -10.198938884176442 11.972667385772347 -22.17160626994879 11.972667385772347
S 770.3249926364101 754.0759730200291 770.3249926364101 712.3933532325253
s 10.198938884176442 -11.972667385772347 22.17160626994879 -11.972667385772347
S 814.6682051763078 670.7107334450216 814.6682051763078 712.3933532325253
z" fill="none" stroke="none"></path>
<use xlink:href="#path-2xw57qwpcls-1" x="0" y="0" stroke="#ffffff">
  <animateMotion begin="-7.982323366305817s" dur="27.859080286219708s" keyPoints="1;0" keyTimes="0;1" repeatCount="indefinite" calcMode="linear">
    <mpath xlink:href="#path17"></mpath>
  </animateMotion>
</use><path id="path18" d="M 894.5155748669262 672.92453165405
c 0 27.607034341652177 -6.75491265806383 7.929680076857541 -14.68459273492137 7.929680076857541
S 865.1463893970835 700.5315659957022 865.1463893970835 672.92453165405
s 6.75491265806383 -7.929680076857541 14.68459273492137 -7.929680076857541
S 894.5155748669262 645.3174973123979 894.5155748669262 672.92453165405
z" fill="none" stroke="none"></path>
<use xlink:href="#path-2xw57qwpcls-2" x="0" y="0" stroke="#ffffff">
  <animateMotion begin="-7.247182916082824s" dur="34.469280228604376s" keyPoints="1;0" keyTimes="0;1" repeatCount="indefinite" calcMode="linear">
    <mpath xlink:href="#path18"></mpath>
  </animateMotion>
</use><path id="path19" d="M 944.8674304704502 116.27676781879157
c 0 46.90159160643847 -11.475921350511541 13.471733759296157 -24.947655109807698 13.471733759296157
S 894.9721202508349 163.17835942523004 894.9721202508349 116.27676781879157
s 11.475921350511541 -13.471733759296157 24.947655109807698 -13.471733759296157
S 944.8674304704502 69.3751762123531 944.8674304704502 116.27676781879157
z" fill="none" stroke="none"></path>
<use xlink:href="#path-2xw57qwpcls-1" x="0" y="0" stroke="#ffffff">
  <animateMotion begin="-9.201759702307463s" dur="32.01987135306468s" keyPoints="1;0" keyTimes="0;1" repeatCount="indefinite" calcMode="linear">
    <mpath xlink:href="#path19"></mpath>
  </animateMotion>
</use><path id="path20" d="M 963.3037575570235 340.5447846364278
c 0 63.61746737697325 -15.56597606032324 18.273102331683805 -33.839078392007046 18.273102331683805
S 895.6256007730093 404.16225201340103 895.6256007730093 340.5447846364278
s 15.56597606032324 -18.273102331683805 33.839078392007046 -18.273102331683805
S 963.3037575570235 276.9273172594545 963.3037575570235 340.5447846364278
z" fill="none" stroke="none"></path>
<use xlink:href="#path-2xw57qwpcls-2" x="0" y="0" stroke="#ffffff">
  <animateMotion begin="-6.8982489825474484s" dur="33.47081845259372s" keyPoints="0;1" keyTimes="0;1" repeatCount="indefinite" calcMode="linear">
    <mpath xlink:href="#path20"></mpath>
  </animateMotion>
</use><path id="path21" d="M 1004.8266477946408 158.3248222779238
c 0 52.16724701621763 -12.764326397585162 14.984209249339106 -27.748535646924267 14.984209249339106
S 949.3295765007924 210.49206929414143 949.3295765007924 158.3248222779238
s 12.764326397585162 -14.984209249339106 27.748535646924267 -14.984209249339106
S 1004.8266477946408 106.15757526170617 1004.8266477946408 158.3248222779238
z" fill="none" stroke="none"></path>
<use xlink:href="#path-2xw57qwpcls-2" x="0" y="0" stroke="#ffffff">
  <animateMotion begin="-3.254508970689498s" dur="26.10876160186543s" keyPoints="0;1" keyTimes="0;1" repeatCount="indefinite" calcMode="linear">
    <mpath xlink:href="#path21"></mpath>
  </animateMotion>
</use><path id="path22" d="M 1073.434961693301 176.70448781244372
c 0 20.20370279475714 -4.943459194461854 5.803191228281307 -10.74665042274316 5.803191228281307
S 1051.9416608478145 196.90819060720085 1051.9416608478145 176.70448781244372
s 4.943459194461854 -5.803191228281307 10.74665042274316 -5.803191228281307
S 1073.434961693301 156.50078501768658 1073.434961693301 176.70448781244372
z" fill="none" stroke="none"></path>
<use xlink:href="#path-2xw57qwpcls-2" x="0" y="0" stroke="#ffffff">
  <animateMotion begin="-4.64298929466616s" dur="39.30390014945315s" keyPoints="1;0" keyTimes="0;1" repeatCount="indefinite" calcMode="linear">
    <mpath xlink:href="#path22"></mpath>
  </animateMotion>
</use><path id="path23" d="M 1110.6040615655036 657.4131157710921
c 0 56.33094217664668 -13.783102873009291 16.1801642422283 -29.963267115237592 16.1801642422283
S 1050.6775273350283 713.7440579477387 1050.6775273350283 657.4131157710921
s 13.783102873009291 -16.1801642422283 29.963267115237592 -16.1801642422283
S 1110.6040615655036 601.0821735944454 1110.6040615655036 657.4131157710921
z" fill="none" stroke="none"></path>
<use xlink:href="#path-2xw57qwpcls-1" x="0" y="0" stroke="#ffffff">
  <animateMotion begin="-8.35951262589572s" dur="32.60856940551719s" keyPoints="1;0" keyTimes="0;1" repeatCount="indefinite" calcMode="linear">
    <mpath xlink:href="#path23"></mpath>
  </animateMotion>
</use><path id="path24" d="M 1132.0136562629698 515.1677652795335
c 0 23.115689767613503 -5.655966645267133 6.63961301835707 -12.295579663624203 6.63961301835707
S 1107.4224969357213 538.283455047147 1107.4224969357213 515.1677652795335
s 5.655966645267133 -6.63961301835707 12.295579663624203 -6.63961301835707
S 1132.0136562629698 492.05207551191995 1132.0136562629698 515.1677652795335
z" fill="none" stroke="none"></path>
<use xlink:href="#path-2xw57qwpcls-1" x="0" y="0" stroke="#ffffff">
  <animateMotion begin="-7.812109717200353s" dur="24.068786335860423s" keyPoints="0;1" keyTimes="0;1" repeatCount="indefinite" calcMode="linear">
    <mpath xlink:href="#path24"></mpath>
  </animateMotion>
</use><path id="path25" d="M 1181.6294629599706 650.7639236168357
c 0 20.05737695563543 -4.907656063612923 5.76116146598039 -10.668817529593312 5.76116146598039
S 1160.291827900784 670.821300572471 1160.291827900784 650.7639236168357
s 4.907656063612923 -5.76116146598039 10.668817529593312 -5.76116146598039
S 1181.6294629599706 630.7065466612003 1181.6294629599706 650.7639236168357
z" fill="none" stroke="none"></path>
<use xlink:href="#path-2xw57qwpcls-2" x="0" y="0" stroke="#ffffff">
  <animateMotion begin="-0.48863255500470215s" dur="38.50208269233044s" keyPoints="1;0" keyTimes="0;1" repeatCount="indefinite" calcMode="linear">
    <mpath xlink:href="#path25"></mpath>
  </animateMotion>
</use><path id="path26" d="M 1259.655429662322 707.586224660619
c 0 52.66455038530587 -12.886007009170585 15.127051706417646 -28.01305871558823 15.127051706417646
S 1203.6293122311456 760.2507750459249 1203.6293122311456 707.586224660619
s 12.886007009170585 -15.127051706417646 28.01305871558823 -15.127051706417646
S 1259.655429662322 654.9216742753131 1259.655429662322 707.586224660619
z" fill="none" stroke="none"></path>
<use xlink:href="#path-2xw57qwpcls-3" x="0" y="0" stroke="#ffffff">
  <animateMotion begin="-7.743981600270322s" dur="24.98423402179203s" keyPoints="0;1" keyTimes="0;1" repeatCount="indefinite" calcMode="linear">
    <mpath xlink:href="#path26"></mpath>
  </animateMotion>
</use></g>
</svg>