
<svg xmlns="http://www.w3.org/2000/svg" xmlns:xlink="http://www.w3.org/1999/xlink" style="margin:auto;background:#00001a;z-index:1;position:relative" display="block" preserveAspectRatio="xMidYMid" viewBox="0 0 1258 806"><defs/><g><defs><path id="e" fill="none" stroke="inherit" stroke-width=".49999999980000004" d="M-4.9-4.9h9.8v9.8h-9.8z"/><path id="c" fill="none" stroke="inherit" stroke-width=".49999999980000004" d="M0-5.18A5.18 5.18 0 010 5.18 5.18 5.18 0 010-5.18"/><path id="a" fill="none" stroke="inherit" stroke-width=".49999999980000004" d="M0-4.84974l5.6 9.69948H-5.6z"/></defs><path id="b" fill="none" stroke="none" d="M72.80800926 421.51781768c0 43.48926517-10.64099042 12.49159745-23.13258786 12.49159745s-23.13258785 30.99766772-23.13258785-12.49159745 10.64099041-12.49159744 23.13258785-12.49159744 23.13258786-30.99766772 23.13258786 12.49159744z"/><use stroke="#fff" xlink:href="#a"><animateMotion begin="-2.0755602098255688s" calcMode="linear" dur="30.483757155537088s" keyPoints="1;0" keyTimes="0;1" repeatCount="indefinite"><mpath xlink:href="#b"/></animateMotion></use><path id="d" fill="none" stroke="none" d="M108.9956916 569.31445153c0 63.16136216-15.45437585 18.14209339-33.59646923 18.14209339s-33.59646924 45.01926877-33.59646924-18.14209339 15.45437585-18.14209338 33.59646924-18.14209338 33.59646923-45.01926877 33.59646923 18.14209338z"/><use stroke="#fff" xlink:href="#c"><animateMotion begin="-9.4694920293599s" calcMode="linear" dur="38.52137635374811s" keyPoints="1;0" keyTimes="0;1" repeatCount="indefinite"><mpath xlink:href="#d"/></animateMotion></use><path id="f" fill="none" stroke="none" d="M135.89830088 759.3793386c0 49.14735027-12.02541549 14.1167921-26.14220759 14.1167921s-26.14220758 35.03055817-26.14220758-14.1167921 12.02541549-14.1167921 26.14220758-14.1167921 26.1422076-35.03055816 26.1422076 14.1167921z"/><use stroke="#fff" xlink:href="#e"><animateMotion begin="-0.8609170939366306s" calcMode="linear" dur="36.185373537226866s" keyPoints="0;1" keyTimes="0;1" repeatCount="indefinite"><mpath xlink:href="#f"/></animateMotion></use><path id="g" fill="none" stroke="none" d="M202.34334286 313.55056971c0 36.49032564-8.92848393 10.48126375-19.40974768 10.48126375s-19.40974768 26.0090619-19.40974768-10.48126375 8.92848393-10.48126374 19.40974768-10.48126374 19.40974768-26.0090619 19.40974768 10.48126374z"/><use stroke="#fff" xlink:href="#a"><animateMotion begin="-1.2527343297236615s" calcMode="linear" dur="39.48566429081126s" keyPoints="1;0" keyTimes="0;1" repeatCount="indefinite"><mpath xlink:href="#g"/></animateMotion></use><path id="h" fill="none" stroke="none" d="M230.33609267 307.05011289c0 52.9567029-12.95749114 15.21096785-28.168459 15.21096785s-28.16845899 37.74573505-28.16845899-15.21096785 12.95749114-15.21096786 28.168459-15.21096786 28.16845899-37.74573505 28.16845899 15.21096786z"/><use stroke="#fff" xlink:href="#c"><animateMotion begin="-3.8545212114209693s" calcMode="linear" dur="20.75130098306035s" keyPoints="0;1" keyTimes="0;1" repeatCount="indefinite"><mpath xlink:href="#h"/></animateMotion></use><path id="i" fill="none" stroke="none" d="M289.3272219 631.26582147c0 46.8735886-11.46906955 13.46369034-24.9327599 13.46369034s-24.9327599 33.40989826-24.9327599-13.46369034 11.46906956-13.46369035 24.9327599-13.46369035 24.9327599-33.40989826 24.9327599 13.46369035z"/><use stroke="#fff" xlink:href="#a"><animateMotion begin="-7.183792390866799s" calcMode="linear" dur="28.183556133609805s" keyPoints="0;1" keyTimes="0;1" repeatCount="indefinite"><mpath xlink:href="#i"/></animateMotion></use><path id="j" fill="none" stroke="none" d="M351.07019055 162.44084449c0 43.22385384-10.57604934 12.41536227-22.99141162 12.41536227s-22.99141161 30.80849157-22.99141161-12.41536227 10.57604934-12.41536227 22.99141161-12.41536227 22.99141162-30.80849157 22.99141162 12.41536227z"/><use stroke="#fff" xlink:href="#a"><animateMotion begin="-1.2467838205705584s" calcMode="linear" dur="24.64038154026495s" keyPoints="0;1" keyTimes="0;1" repeatCount="indefinite"><mpath xlink:href="#j"/></animateMotion></use><path id="k" fill="none" stroke="none" d="M361.03315568 362.59844415c0 35.27476652-8.6310599 10.1321138-18.76317368 10.1321138s-18.76317368 25.14265272-18.76317368-10.1321138 8.63105989-10.13211379 18.76317368-10.13211379 18.76317368-25.14265273 18.76317368 10.1321138z"/><use stroke="#fff" xlink:href="#a"><animateMotion begin="-2.14448002763566s" calcMode="linear" dur="35.23082489651976s" keyPoints="1;0" keyTimes="0;1" repeatCount="indefinite"><mpath xlink:href="#k"/></animateMotion></use><path id="l" fill="none" stroke="none" d="M423.75375744 399.41051112c0 39.5487175-9.67681385 11.359738-21.03655186 11.359738s-21.03655185 28.1889795-21.03655185-11.359738 9.67681385-11.359738 21.03655185-11.359738 21.03655186-28.1889795 21.03655186 11.359738z"/><use stroke="#fff" xlink:href="#e"><animateMotion begin="-9.232412213356387s" calcMode="linear" dur="32.56820932427081s" keyPoints="0;1" keyTimes="0;1" repeatCount="indefinite"><mpath xlink:href="#l"/></animateMotion></use><path id="m" fill="none" stroke="none" d="M484.6620537 106.54549358c0 54.09889643-13.23696401 15.53904472-28.77600873 15.53904472s-28.77600874 38.55985171-28.77600874-15.53904472 13.23696402-15.53904472 28.77600874-15.53904472 28.77600874-38.55985171 28.77600874 15.53904472z"/><use stroke="#fff" xlink:href="#c"><animateMotion begin="-4.009107802093952s" calcMode="linear" dur="39.68935987653258s" keyPoints="1;0" keyTimes="0;1" repeatCount="indefinite"><mpath xlink:href="#m"/></animateMotion></use><path id="n" fill="none" stroke="none" d="M531.74554981 756.97624549c0 54.44547714-13.32176568 15.6385945-28.96036018 15.6385945s-28.96036019 38.80688264-28.96036019-15.6385945 13.32176569-15.6385945 28.96036019-15.6385945 28.96036018-38.80688265 28.96036018 15.6385945z"/><use stroke="#fff" xlink:href="#c"><animateMotion begin="-1.2562052473319785s" calcMode="linear" dur="29.33639634720583s" keyPoints="1;0" keyTimes="0;1" repeatCount="indefinite"><mpath xlink:href="#n"/></animateMotion></use><path id="o" fill="none" stroke="none" d="M534.91490512 731.21620912c0 23.80269657-5.82406405 6.83694476-12.66100881 6.83694476s-12.66100882 16.96575181-12.66100882-6.83694476 5.82406406-6.83694476 12.66100882-6.83694476 12.66100881-16.9657518 12.66100881 6.83694476z"/><use stroke="#fff" xlink:href="#e"><animateMotion begin="-3.764813350309344s" calcMode="linear" dur="22.029499447141788s" keyPoints="0;1" keyTimes="0;1" repeatCount="indefinite"><mpath xlink:href="#o"/></animateMotion></use><path id="p" fill="none" stroke="none" d="M626.29870748 553.58966528c0 42.98204514-10.51688338 12.34590659-22.86278997 12.34590659s-22.86278996 30.63613855-22.86278996-12.34590659 10.51688338-12.34590658 22.86278996-12.34590658 22.86278997-30.63613856 22.86278997 12.34590658z"/><use stroke="#fff" xlink:href="#e"><animateMotion begin="-0.8472733878697336s" calcMode="linear" dur="30.450071515546043s" keyPoints="0;1" keyTimes="0;1" repeatCount="indefinite"><mpath xlink:href="#p"/></animateMotion></use><path id="q" fill="none" stroke="none" d="M655.11229408 536.18309154c0 31.48734802-7.70435111 9.04423826-16.74858937 9.04423826s-16.74858937 22.44310976-16.74858937-9.04423826 7.7043511-9.04423826 16.74858937-9.04423826 16.74858937-22.44310975 16.74858937 9.04423826z"/><use stroke="#fff" xlink:href="#c"><animateMotion begin="-6.513595753549901s" calcMode="linear" dur="22.963083517868675s" keyPoints="1;0" keyTimes="0;1" repeatCount="indefinite"><mpath xlink:href="#q"/></animateMotion></use><path id="r" fill="none" stroke="none" d="M669.96210575 613.70660128c0 27.1237426-6.63666042 7.79086224-14.42752266 7.79086224s-14.42752266 19.33288036-14.42752266-7.79086224 6.63666042-7.79086223 14.42752266-7.79086223 14.42752266-19.33288037 14.42752266 7.79086223z"/><use stroke="#fff" xlink:href="#e"><animateMotion begin="-1.2794997441402889s" calcMode="linear" dur="22.704189129994617s" keyPoints="1;0" keyTimes="0;1" repeatCount="indefinite"><mpath xlink:href="#r"/></animateMotion></use><path id="s" fill="none" stroke="none" d="M744.52548776 104.30220844c0 31.93573573-7.814063 9.17303048-16.98709346 9.17303048s-16.98709347 22.76270525-16.98709347-9.17303048 7.814063-9.17303047 16.98709347-9.17303047 16.98709346-22.76270525 16.98709346 9.17303047z"/><use stroke="#fff" xlink:href="#e"><animateMotion begin="-7.623115066689737s" calcMode="linear" dur="32.382302472114s" keyPoints="0;1" keyTimes="0;1" repeatCount="indefinite"><mpath xlink:href="#s"/></animateMotion></use><path id="t" fill="none" stroke="none" d="M796.50290075 670.67623851c0 59.40311145-14.53480386 17.06259584-31.5973997 17.06259584s-31.59739971 42.34051561-31.59739971-17.06259584 14.53480386-17.06259584 31.5973997-17.06259584 31.59739971-42.34051561 31.59739971 17.06259584z"/><use stroke="#fff" xlink:href="#a"><animateMotion begin="-4.078190810192823s" calcMode="linear" dur="39.17633719818442s" keyPoints="0;1" keyTimes="0;1" repeatCount="indefinite"><mpath xlink:href="#t"/></animateMotion></use><path id="u" fill="none" stroke="none" d="M814.66820518 712.39335323c0 41.68261979-10.19893889 11.97266739-22.17160627 11.97266739s-22.17160627 29.7099524-22.17160627-11.97266739 10.19893888-11.97266738 22.17160627-11.97266738 22.17160627-29.7099524 22.17160627 11.97266738z"/><use stroke="#fff" xlink:href="#e"><animateMotion begin="-7.982323366305817s" calcMode="linear" dur="27.859080286219708s" keyPoints="1;0" keyTimes="0;1" repeatCount="indefinite"><mpath xlink:href="#u"/></animateMotion></use><path id="v" fill="none" stroke="none" d="M894.51557487 672.92453165c0 27.60703435-6.75491266 7.92968008-14.68459274 7.92968008s-14.68459273 19.67735427-14.68459273-7.92968008 6.75491266-7.92968007 14.68459273-7.92968007 14.68459274-19.67735427 14.68459274 7.92968007z"/><use stroke="#fff" xlink:href="#c"><animateMotion begin="-7.247182916082824s" calcMode="linear" dur="34.469280228604376s" keyPoints="1;0" keyTimes="0;1" repeatCount="indefinite"><mpath xlink:href="#v"/></animateMotion></use><path id="w" fill="none" stroke="none" d="M944.86743047 116.27676782c0 46.9015916-11.47592135 13.47173376-24.9476551 13.47173376s-24.94765512 33.42985785-24.94765512-13.47173376 11.47592135-13.47173376 24.94765511-13.47173376 24.94765511-33.42985785 24.94765511 13.47173376z"/><use stroke="#fff" xlink:href="#e"><animateMotion begin="-9.201759702307463s" calcMode="linear" dur="32.01987135306468s" keyPoints="1;0" keyTimes="0;1" repeatCount="indefinite"><mpath xlink:href="#w"/></animateMotion></use><path id="x" fill="none" stroke="none" d="M963.30375756 340.54478464c0 63.61746737-15.56597606 18.27310233-33.8390784 18.27310233s-33.83907839 45.34436504-33.83907839-18.27310233 15.56597606-18.27310234 33.8390784-18.27310234 33.83907839-45.34436504 33.83907839 18.27310234z"/><use stroke="#fff" xlink:href="#c"><animateMotion begin="-6.8982489825474484s" calcMode="linear" dur="33.47081845259372s" keyPoints="0;1" keyTimes="0;1" repeatCount="indefinite"><mpath xlink:href="#x"/></animateMotion></use><path id="y" fill="none" stroke="none" d="M1004.8266478 158.32482228c0 52.16724701-12.7643264 14.98420925-27.74853565 14.98420925s-27.74853565 37.18303776-27.74853565-14.98420925 12.7643264-14.98420925 27.74853565-14.98420925 27.74853564-37.18303777 27.74853564 14.98420925z"/><use stroke="#fff" xlink:href="#c"><animateMotion begin="-3.254508970689498s" calcMode="linear" dur="26.10876160186543s" keyPoints="0;1" keyTimes="0;1" repeatCount="indefinite"><mpath xlink:href="#y"/></animateMotion></use><path id="z" fill="none" stroke="none" d="M1073.4349617 176.70448781c0 20.2037028-4.9434592 5.80319123-10.74665043 5.80319123s-10.74665042 14.40051157-10.74665042-5.80319123 4.9434592-5.80319123 10.74665042-5.80319123 10.74665042-14.40051156 10.74665042 5.80319123z"/><use stroke="#fff" xlink:href="#c"><animateMotion begin="-4.64298929466616s" calcMode="linear" dur="39.30390014945315s" keyPoints="1;0" keyTimes="0;1" repeatCount="indefinite"><mpath xlink:href="#z"/></animateMotion></use><path id="A" fill="none" stroke="none" d="M1110.60406157 657.41311577c0 56.33094218-13.78310288 16.18016424-29.96326712 16.18016424s-29.96326711 40.15077794-29.96326711-16.18016424 13.78310287-16.18016424 29.96326711-16.18016424 29.96326712-40.15077794 29.96326712 16.18016424z"/><use stroke="#fff" xlink:href="#e"><animateMotion begin="-8.35951262589572s" calcMode="linear" dur="32.60856940551719s" keyPoints="1;0" keyTimes="0;1" repeatCount="indefinite"><mpath xlink:href="#A"/></animateMotion></use><path id="B" fill="none" stroke="none" d="M1132.01365626 515.16776528c0 23.11568977-5.65596664 6.63961302-12.29557966 6.63961302s-12.29557966 16.47607675-12.29557966-6.63961302 5.65596664-6.63961302 12.29557966-6.63961302 12.29557966-16.47607675 12.29557966 6.63961302z"/><use stroke="#fff" xlink:href="#e"><animateMotion begin="-7.812109717200353s" calcMode="linear" dur="24.068786335860423s" keyPoints="0;1" keyTimes="0;1" repeatCount="indefinite"><mpath xlink:href="#B"/></animateMotion></use><path id="C" fill="none" stroke="none" d="M1181.62946296 650.76392362c0 20.05737695-4.90765606 5.76116146-10.66881753 5.76116146s-10.66881753 14.2962155-10.66881753-5.76116146 4.90765606-5.76116147 10.66881753-5.76116147 10.66881753-14.29621549 10.66881753 5.76116147z"/><use stroke="#fff" xlink:href="#c"><animateMotion begin="-0.48863255500470215s" calcMode="linear" dur="38.50208269233044s" keyPoints="1;0" keyTimes="0;1" repeatCount="indefinite"><mpath xlink:href="#C"/></animateMotion></use><path id="D" fill="none" stroke="none" d="M1259.65542966 707.58622466c0 52.66455039-12.886007 15.1270517-28.01305871 15.1270517s-28.01305872 37.53749869-28.01305872-15.1270517 12.88600701-15.1270517 28.01305872-15.1270517 28.01305871-37.53749868 28.01305871 15.1270517z"/><use stroke="#fff" xlink:href="#a"><animateMotion begin="-7.743981600270322s" calcMode="linear" dur="24.98423402179203s" keyPoints="0;1" keyTimes="0;1" repeatCount="indefinite"><mpath xlink:href="#D"/></animateMotion></use></g></svg>