<?xml version="1.0" standalone="no"?>
<!DOCTYPE svg PUBLIC "-//W3C//DTD SVG 20010904//EN"
 "http://www.w3.org/TR/2001/REC-SVG-20010904/DTD/svg10.dtd">
<svg version="1.0" xmlns="http://www.w3.org/2000/svg"
 width="512.000000pt" height="512.000000pt" viewBox="0 0 512.000000 512.000000"
 preserveAspectRatio="xMidYMid meet">
<metadata>
Created by potrace 1.11, written by Peter Selinger 2001-2013
</metadata>
<g transform="translate(0.000000,512.000000) scale(0.100000,-0.100000)"
fill="#000000" stroke="none">
<path d="M1090 4785 c-264 -54 -387 -181 -439 -455 -7 -37 -10 -655 -10 -1855
0 -1524 3 -1810 15 -1867 54 -255 168 -374 414 -429 81 -18 128 -19 1020 -15
514 2 953 6 975 9 22 2 74 7 115 11 239 24 497 92 653 173 295 153 512 408
618 725 36 106 35 102 55 233 16 102 20 278 9 350 -34 224 -82 358 -181 506
-114 171 -276 305 -503 419 l-74 37 59 39 c151 99 298 261 372 409 51 102 63
133 89 233 32 122 41 370 17 492 -86 450 -409 798 -859 925 -107 31 -147 38
-260 50 -38 4 -83 9 -100 13 -16 3 -455 6 -975 8 -753 2 -958 0 -1010 -11z
m1590 -838 c14 -3 48 -9 75 -12 82 -11 97 -14 175 -33 230 -58 317 -158 328
-378 5 -109 -6 -178 -39 -252 -77 -169 -208 -262 -409 -287 -29 -4 -62 -9 -74
-12 -12 -4 -247 -8 -523 -10 l-503 -5 -1 79 c0 113 0 776 0 856 l1 67 473 -4
c259 -2 483 -6 497 -9z m150 -1809 c14 -4 48 -9 75 -13 146 -19 309 -86 396
-164 105 -93 140 -199 136 -401 -4 -180 -45 -282 -152 -383 -85 -80 -270 -146
-465 -165 -47 -5 -316 -9 -597 -10 l-513 -1 -1 47 c0 64 0 939 0 1030 l1 73
548 -4 c301 -2 558 -6 572 -9z"/>
</g>
</svg>
