<?xml version="1.0" ?><!DOCTYPE svg  PUBLIC '-//W3C//DTD SVG 1.1 Tiny//EN'  'http://www.w3.org/Graphics/SVG/1.1/DTD/svg11-tiny.dtd'><svg baseProfile="tiny" height="24px" id="Layer_1" version="1.1" viewBox="0 0 24 24" width="24px" xml:space="preserve" xmlns="http://www.w3.org/2000/svg" xmlns:xlink="http://www.w3.org/1999/xlink"><g><g><g><g><path d="M8.582,23.974H4.63v-4.536l4.404-8.157c0.048-0.09,0.032-0.195-0.04-0.269l-0.431-0.433      c-0.042-0.042-0.097-0.064-0.159-0.064H4.66V4.96h7.185c0.043,0,0.083-0.011,0.118-0.033l0.708-0.446      c0.033-0.021,0.06-0.049,0.078-0.084l2.2-4.076l0.469-0.294h3.951v4.535l-4.4,8.158c-0.047,0.086-0.031,0.198,0.037,0.266      l0.34,0.341c0.045,0.044,0.1,0.067,0.16,0.067h3.836v5.555h-7.043c-0.043,0-0.084,0.012-0.12,0.034l-0.849,0.536      c-0.034,0.021-0.062,0.052-0.081,0.085l-2.2,4.075L8.582,23.974z M5.535,23.069l2.831-0.028l2.087-3.867      c0.093-0.173,0.23-0.317,0.396-0.421l0.847-0.534c0.18-0.113,0.388-0.175,0.603-0.175h6.139v-3.746h-2.932      c-0.303,0-0.588-0.118-0.801-0.333l-0.338-0.339c-0.352-0.35-0.432-0.899-0.195-1.336l4.293-7.956V0.931l-2.832,0.029      l-2.086,3.866c-0.094,0.172-0.23,0.318-0.395,0.421L12.448,5.69c-0.178,0.114-0.387,0.175-0.603,0.175H5.564V9.61h2.84      c0.301,0,0.584,0.117,0.798,0.33l0.433,0.435c0.355,0.356,0.433,0.893,0.195,1.335l-4.296,7.956V23.069z"/></g></g></g></g></svg>