<?xml version="1.0" ?><!DOCTYPE svg  PUBLIC '-//W3C//DTD SVG 1.1//EN'  'http://www.w3.org/Graphics/SVG/1.1/DTD/svg11.dtd'><svg height="512px" style="enable-background:new 0 0 512 512;" version="1.1" viewBox="0 0 512 512" width="512px" xml:space="preserve" xmlns="http://www.w3.org/2000/svg" xmlns:xlink="http://www.w3.org/1999/xlink"><g id="comp_x5F_147-gmail"><g><g><path d="     M442.872,82.934h-14.361h-0.014L256.003,219.52L83.499,82.934h-2.726H69.125c-23.802,0-43.124,19.37-43.124,43.241v259.446     c0,23.867,19.322,43.24,43.124,43.24h13.939h0.434V159.21l172.504,133.038l172.494-133.07v254.389v15.295h14.375     c23.805,0,43.127-19.373,43.127-43.24V126.175C485.999,102.305,466.681,82.934,442.872,82.934z" style="fill:none;stroke:#000000;stroke-width:20;stroke-linecap:round;stroke-linejoin:round;stroke-miterlimit:10;"/></g><polygon points="    428.497,82.934 83.499,82.934 256.003,219.52   " style="fill:none;stroke:#000000;stroke-width:20;stroke-linecap:round;stroke-linejoin:round;stroke-miterlimit:10;"/><polygon points="    256.003,292.248 83.499,159.21 83.499,428.861 83.064,428.861 83.064,429.066 428.397,429.066 428.397,413.566 428.497,413.566     428.497,159.178   " style="fill:none;stroke:#000000;stroke-width:20;stroke-linecap:round;stroke-linejoin:round;stroke-miterlimit:10;"/></g></g><g id="Layer_1"/></svg>