<?xml version="1.0" ?><!DOCTYPE svg  PUBLIC '-//W3C//DTD SVG 1.1//EN'  'http://www.w3.org/Graphics/SVG/1.1/DTD/svg11.dtd'><svg enable-background="new 0 0 1024 1024" height="1024px" id="Layer_1" version="1.1" viewBox="0 0 1024 1024" width="1024px" xml:space="preserve" xmlns="http://www.w3.org/2000/svg" xmlns:xlink="http://www.w3.org/1999/xlink"><g><g><g><path clip-rule="evenodd" d="M293.924,871.049c-28.3,1.91-55.37,8.701-80.335,22.196      c-5.878,3.178-9.886,9.827-14.753,14.878c5.323,4.017,10.123,10.296,16.058,11.676c31.414,7.294,62.84,15.734,94.766,19.416      c106.832,12.323,213.977,9.917,320.998,1.969c53.891-4.005,107.729-9.357,160.092-23.859c9.238-2.559,18.347-6.26,26.825-10.744      c13.686-7.241,16.213-13.807,13.024-28.353c16.586,6.567,19.369,19.303,6.096,30.829      c-17.301,15.021-38.734,21.992-60.094,28.579c-52.835,16.294-107.244,24.407-162.071,29.903      c-83.897,8.411-167.975,9.179-252.077,4.017c-66.295-4.067-132.387-10.317-197.54-23.94c-6.441-1.346-12.836-3.832-18.699-6.861      c-14.428-7.454-16.196-18.262-4.647-29.496c5.44-5.291,11.749-9.989,18.361-13.718c32.131-18.109,66.799-28.54,103.467-31.603      c10.23-0.854,20.699,1.152,31.06,1.846C294.276,868.873,294.1,869.962,293.924,871.049z" fill-rule="evenodd"/><path clip-rule="evenodd" d="M273.508,994.561c25.095,2.678,48.736,6.552,72.49,7.469      c62.315,2.412,124.704,5.437,187.021,4.681c76.116-0.923,151.937-8.466,226.333-25.378      c31.058-7.063,61.546-17.163,91.623-27.788c13.791-4.868,25.959-14.337,38.415-21.461c-1.607,10.372-8.307,19.247-16.879,26.9      c-17.055,15.227-37.707,23.739-59.011,30.729c-49.426,16.219-100.614,23.231-152.135,27.949      c-75.223,6.893-150.603,8.026-226.028,4.067c-46.649-2.449-93.23-5.819-138.634-17.977c-6.098-1.632-12.013-3.963-17.963-6.106      C277.264,997.113,275.98,996.044,273.508,994.561z" fill-rule="evenodd"/></g><g><g><path clip-rule="evenodd" d="M617.596,0c14.476,18.119,22.477,39.254,24.051,62.766       c3.105,46.421-16.279,85.021-43.015,120.804c-24.781,33.166-55.438,60.437-87.49,86.281       c-25.059,20.207-48.299,42.141-64.757,70.333c-18.857,32.299-21.458,65.937-5.556,99.672       c8.909,18.899,20.644,36.519,31.735,54.324c10.581,16.984,22.039,33.42,32.968,50.189c2.273,3.483,3.918,7.379,5.853,11.084       c-0.965,0.762-1.93,1.524-2.895,2.286c-26.878-27.648-54.928-54.279-80.204-83.328c-15.586-17.908-28.873-38.509-39.769-59.668       c-18.422-35.769-13.118-70.259,11.818-101.977c21.255-27.038,47.728-48.363,73.842-70.261       c33.209-27.844,67.054-55.151,98.094-85.302c28.418-27.601,46.061-62.374,47.877-102.976       C620.946,36.396,618.562,18.418,617.596,0z" fill-rule="evenodd"/><path clip-rule="evenodd" d="M553.009,591.117c3.807-4.921,7.856-9.674,11.379-14.79       c20.449-29.689,18.825-58.087-2.85-86.852c-13.186-17.5-26.873-35.371-35.924-55.103       c-22.141-48.283-10.649-93.829,30.713-133.293c36.957-35.262,81.786-57.231,128.714-75.423       c16.284-6.312,32.999-11.501,49.519-17.204c0.337,0.799,0.673,1.597,1.01,2.396c-7.047,4.297-14.358,8.21-21.093,12.951       c-33.266,23.413-67.031,46.197-99.224,71.02c-12.653,9.757-22.828,23.438-32.063,36.77       c-13.573,19.593-15.063,41.606-3.858,62.728c9.032,17.029,19.829,33.226,30.921,49.035       c27.308,38.925,26.133,70.971-5.028,107.033C590.56,567.354,573.001,580.728,553.009,591.117z" fill-rule="evenodd"/></g><g><g><path clip-rule="evenodd" d="M371.102,792.042c-7.795,14.319-6.175,20.978,9.089,24.302        c19.148,4.173,38.763,6.519,58.288,8.582c57.287,6.054,113.885,0.129,170.229-10.404c5.283-0.987,11.75,0.479,16.78,2.761        c15.736,7.14,31.048,15.216,47.194,23.264c-27.593,12.142-55.885,20.521-84.991,25.958        c-69.394,12.96-138.688,14.276-207.129-5.457c-14.169-4.082-28.11-10.795-40.473-18.875        c-16.558-10.822-15.772-25.057,1.042-35.646C350.461,800.648,361.069,796.803,371.102,792.042z" fill-rule="evenodd"/><path clip-rule="evenodd" d="M720.572,603.948c-31.964,25.257-75.219,30.723-118.175,36.577        c-81.944,11.167-164.326,15.07-246.84,9.745c-36.17-2.335-72.114-8.581-108.054-13.779        c-7.711-1.115-15.358-4.651-22.346-8.368c-11.433-6.079-11.542-13.542-1.033-21.398c2.392-1.789,5.014-3.328,7.689-4.667        c46.227-23.104,94.946-37.037,146.69-39.736c3.186-0.167,6.39-0.022,9.702,1.136c-18.319,5.693-36.858,10.78-54.881,17.286        c-12.465,4.501-24.738,10.089-36.14,16.814c-10.42,6.149-9.568,14.2,1.98,17.458c15.312,4.32,31.238,8.713,46.957,8.927        c59.054,0.806,118.275,2.412,177.164-0.979C590.779,619.074,657.987,610.187,720.572,603.948z" fill-rule="evenodd"/><path clip-rule="evenodd" d="M348.124,682.047c-14.767,19.011-11.855,30.18,12.44,32.907        c42.338,4.747,85.032,7.557,127.631,8.384c52.196,1.011,103.67-7.753,154.991-16.688c3.836-0.668,8.745,1.039,12.277,3.129        c11.138,6.59,21.857,13.884,33.109,21.145c-1.294,0.574-3.067,1.653-4.991,2.173        c-100.014,26.988-201.37,36.385-304.268,21.733c-18.325-2.609-36.206-8.63-54.107-13.73        c-5.639-1.606-10.995-4.868-15.923-8.197c-14.56-9.843-15.636-22.039-1.387-32.117c12.003-8.491,25.786-14.459,38.78-21.546        C347.159,680.176,347.642,681.11,348.124,682.047z" fill-rule="evenodd"/></g><path clip-rule="evenodd" d="M729.464,751.104c3.699-2.362,7.288-4.922,11.11-7.059       c31.901-17.833,62.557-37.372,85.65-66.441c14.689-18.491,25.292-38.818,20.361-63.614       c-6.263-31.502-39.709-54.062-71.422-48.506c-7.457,1.307-14.814,3.186-23.112,3.191c3.965-2.796,7.562-6.573,11.958-8.23       c32.312-12.183,64.186-12.424,93.899,7.072c36.302,23.822,42.435,68.19,15.177,105.157       c-21.342,28.945-51.144,46.525-83.4,60.139c-19.184,8.094-39.165,14.295-58.786,21.346       C730.421,753.14,729.944,752.121,729.464,751.104z" fill-rule="evenodd"/></g></g></g></g></svg>