<?xml version="1.0" ?><!DOCTYPE svg  PUBLIC '-//W3C//DTD SVG 1.1//EN'  'http://www.w3.org/Graphics/SVG/1.1/DTD/svg11.dtd'><svg enable-background="new 0 0 24 24" height="24px" id="Layer_1" version="1.1" viewBox="0 0 24 24" width="24px" xml:space="preserve" xmlns="http://www.w3.org/2000/svg" xmlns:xlink="http://www.w3.org/1999/xlink"><g><g><g><path d="M23.978,23.52H16.81v-8.115c0-1.922-0.623-1.922-0.89-1.922c-1.061,0-1.177,1.369-1.177,1.957v8.08H8.287V8.496h6.409     c0.779-0.471,1.834-0.732,3.006-0.732c0.75,0,2.642,0.138,4.015,1.419c1.459,1.359,2.261,3.46,2.261,5.915V23.52z M17.585,22.744     h5.618v-7.646c0-2.237-0.716-4.137-2.015-5.348c-1.172-1.093-2.829-1.211-3.486-1.211c-1.313,0-2.436,0.356-3.076,0.978     l-0.656,0.638V9.271L9.062,9.289v13.455h4.908v-7.305c0-1.711,0.729-2.732,1.95-2.732c1.12,0,1.665,0.882,1.665,2.697V22.744z      M7.189,23.52H0.022V8.496h7.167V23.52z M0.797,22.744h5.617V9.271L0.797,9.289V22.744z M3.605,7.649     c-1.976,0-3.583-1.608-3.583-3.585c0-1.976,1.607-3.583,3.583-3.583c1.976,0,3.583,1.607,3.583,3.583     C7.189,6.041,5.582,7.649,3.605,7.649z M3.605,1.256c-1.549,0-2.809,1.26-2.809,2.808c0,1.549,1.26,2.81,2.809,2.81     s2.809-1.26,2.809-2.81C6.414,2.516,5.154,1.256,3.605,1.256z"/></g></g></g></svg>