<?xml version="1.0" ?><svg enable-background="new -194.99 53.672 458.785 457.419" id="Layer_1" version="1.1" viewBox="-194.99 53.672 458.785 457.419" xml:space="preserve" xmlns="http://www.w3.org/2000/svg" xmlns:xlink="http://www.w3.org/1999/xlink"><g id="Layer_1_1_"/><g><path d="M263.601,254.192c-0.301-4.318-1.054-8.396-1.781-12.339c-0.351-1.899-0.682-3.692-0.958-5.479   c-0.896-5.791-2.036-11.552-3.485-17.611c-0.018-0.074-0.036-0.148-0.056-0.221l-0.025-0.097   c-1.478-5.61-3.006-11.411-5.031-17.109c-0.546-1.536-1.063-3.081-1.581-4.624c-1.346-4.01-2.738-8.158-4.608-12.271   c-1.974-4.344-4.27-8.326-6.49-12.177c-0.701-1.216-1.401-2.43-2.087-3.649l-1.3-2.323c-2.419-4.333-4.921-8.815-7.87-13.15   c-2.986-4.392-6.263-8.412-9.43-12.299l-1.563-1.921c-3.542-4.369-7.417-9.035-11.751-13.565c-3.14-3.281-6.46-6.148-9.671-8.921   c-1.2-1.036-2.401-2.073-3.587-3.129l-2.046-1.829c-3.643-3.263-7.409-6.637-11.549-9.783c-0.772-0.587-1.544-1.178-2.316-1.77   c-3.842-2.942-7.814-5.983-12.128-8.777c-4.945-3.202-10.108-6.284-15.346-9.158c-0.111-0.062-0.225-0.121-0.34-0.178   c-4.139-2.069-8.207-3.789-12.142-5.453c-1.383-0.584-2.759-1.166-4.124-1.758c-4.984-2.16-9.982-3.957-14.817-5.695l-1.852-0.667   c-5.478-1.977-10.921-3.606-16.959-5.381c-0.653-0.192-1.323-0.317-2-0.373c-0.132-0.03-0.268-0.064-0.404-0.097   c-0.625-0.149-1.383-0.331-2.235-0.458c-5.938-1.792-11.766-2.989-16.24-3.841c-6.373-1.214-12.058-2.036-17.378-2.512   c-5.265-0.471-10.365-0.527-15.317-0.533c-4.656-1.643-9.256-1.425-12.75-1.258c-0.883,0.042-1.717,0.082-2.39,0.082   c-0.369,0-0.737,0.021-1.104,0.061c-4.042,0.449-8.798,0.941-13.417,1.184l-1.355,0.071c-4.353,0.227-8.855,0.461-13.212,0.945   c-4.293,0.477-8.858,1.198-14.368,2.27c-4.281,0.833-8.761,1.772-13.698,2.868c-0.114,0.025-0.228,0.053-0.341,0.083   c-5.307,1.375-10.733,2.955-16.13,4.694c-5.692,1.835-10.823,3.524-15.987,5.612c-1.081,0.437-2.166,0.866-3.25,1.295   c-4.082,1.616-8.304,3.287-12.48,5.404c-3.929,1.992-7.471,4.31-10.896,6.552c-1.243,0.813-2.488,1.628-3.746,2.421   c-4.014,2.529-8.145,5.133-12.235,8.14c-2.331,0.412-4.085,1.437-5.338,2.492c-3.457,2.628-6.444,5.439-9.336,8.161   c-1.601,1.507-3.114,2.931-4.64,4.26c-1.038,0.904-2.078,1.798-3.116,2.689c-3.706,3.182-7.537,6.472-11.121,10.147   c-4.291,4.399-8.829,9.122-12.992,14.218c-4.021,4.921-7.893,10.139-11.508,15.508c-2.823,4.192-5.105,8.508-7.313,12.682   c-0.726,1.373-1.452,2.747-2.198,4.114l-1.32,2.409c-2.562,4.663-5.211,9.484-7.481,14.734c-2.42,5.6-4.958,11.594-7.061,17.905   c-0.026,0.079-0.052,0.159-0.076,0.238c-1.785,5.842-3.372,12.004-4.851,18.838c-1.243,5.741-1.938,11.419-2.61,16.91l-0.292,2.367   c-0.826,6.636-1.099,13.288-1.27,19.489l-0.063,2.204c-0.166,5.619-0.337,11.429,0.112,17.399   c0.436,5.788,1.289,11.98,2.684,19.487l0.492,2.679c0.983,5.395,2,10.974,3.723,16.614c0.105,0.346,0.229,0.686,0.372,1.018   c1.424,3.322,2.763,6.813,4.18,10.507c1.423,3.709,2.894,7.545,4.47,11.223c0.044,0.102,0.089,0.203,0.137,0.305   c0.812,1.732,1.575,3.505,2.383,5.381c1.539,3.574,3.13,7.271,5.177,10.922c2.15,3.837,4.562,7.265,6.895,10.578   c1.081,1.535,2.101,2.985,3.075,4.445c3.5,5.244,6.966,10.019,10.595,14.593l1.153,1.457c3.255,4.115,6.621,8.37,10.436,12.419   c4.23,4.491,8.589,8.745,12.955,12.645c2.809,2.51,5.874,5.049,9.597,7.943c-0.391,3.758-0.723,7.593-0.821,11.473   c-0.03,1.18-0.064,2.359-0.1,3.54c-0.127,4.28-0.259,8.707-0.146,13.191c0.08,3.185,0.329,6.279,0.569,9.272   c0.197,2.455,0.384,4.775,0.475,7.065c0.095,2.358,0.239,4.7,0.378,6.965c0.193,3.131,0.375,6.088,0.432,9.024   c0.056,2.9-0.163,5.968-0.393,9.215c-0.15,2.116-0.306,4.305-0.388,6.526c-0.175,4.704,2.955,8.893,7.515,10.06   c0.826,0.211,1.658,0.313,2.48,0.313c2.916,0,5.7-1.281,7.596-3.498c0.458-0.248,0.981-0.563,1.531-0.963   c2.451-1.353,4.833-2.739,7.143-4.084c2.773-1.613,5.392-3.138,8.05-4.566l4.585-2.466c3.892-2.094,7.77-4.181,11.654-6.258   c2.885-1.543,5.696-3.168,8.415-4.739c2.638-1.524,5.13-2.965,7.683-4.337c2.389-1.284,4.88-2.482,7.517-3.752   c2.947-1.419,5.995-2.886,9.05-4.552c0.132-0.072,0.263-0.147,0.391-0.226c2.542,0.715,5.056,1.348,7.525,1.97   c1.186,0.298,2.373,0.597,3.559,0.904l1.388,0.36c5.3,1.376,10.78,2.8,16.462,3.788c4.641,0.807,9.176,1.168,13.562,1.518   c1.548,0.123,3.096,0.246,4.642,0.39c6.073,0.564,12.208,0.896,18.233,0.986c1.372,0.021,2.743,0.053,4.114,0.085   c4.572,0.106,9.299,0.217,14.154-0.08c5.146-0.315,10.135-1.023,14.958-1.708c1.06-0.15,2.119-0.301,3.175-0.446   c1.903-0.262,3.844-0.463,5.898-0.675c3.946-0.409,8.026-0.831,12.228-1.732c5.134-1.102,10.068-2.571,14.841-3.992l3.553-1.052   c5.452-1.602,11.089-3.259,16.657-5.363c5.295-2,10.333-4.361,15.206-6.646l1.538-0.72c0.924-0.433,1.851-0.861,2.777-1.29   c4.484-2.075,9.121-4.221,13.659-6.788c5.905-3.341,11.398-6.968,15.526-9.755c3.822-2.583,7.245-5.42,10.556-8.164   c1.281-1.063,2.562-2.125,3.859-3.164c5.2-4.163,9.854-8.474,13.723-12.142c1.355-1.285,2.784-2.547,4.297-3.883   c3.025-2.674,6.154-5.438,9.08-8.732c3.686-4.147,6.925-8.527,10.059-12.764l1.287-1.738c3.335-4.491,6.684-9.497,10.236-15.301   c3.148-5.141,5.795-10.388,8.682-16.223c0.021-0.044,0.044-0.089,0.065-0.134c0.77-1.616,1.588-3.221,2.455-4.92   c1.83-3.589,3.723-7.299,5.259-11.354c2.01-5.303,3.85-10.913,5.624-17.149c1.33-4.669,2.177-9.278,2.996-13.736   c0.24-1.311,0.48-2.619,0.733-3.926c0.181-0.934,0.364-1.866,0.548-2.799c0.95-4.82,1.933-9.805,2.473-14.997   c0.529-5.081,0.587-10.057,0.644-14.869c0.012-1.056,0.024-2.112,0.042-3.166c0.025-1.553,0.077-3.108,0.128-4.667   C263.778,263.275,263.923,258.826,263.601,254.192z M243.648,266.926c-0.054,1.664-0.107,3.325-0.136,4.985   c-0.018,1.088-0.03,2.177-0.043,3.265c-0.054,4.56-0.104,8.867-0.537,13.032c-0.446,4.288-1.299,8.617-2.202,13.2   c-0.189,0.957-0.378,1.914-0.563,2.869c-0.264,1.366-0.516,2.737-0.768,4.109c-0.768,4.178-1.492,8.123-2.561,11.873   c-1.619,5.688-3.284,10.771-5.091,15.54c-1.148,3.031-2.715,6.102-4.373,9.352c-0.878,1.723-1.786,3.503-2.663,5.34   c-2.748,5.555-5.07,10.159-7.779,14.582c-3.239,5.292-6.261,9.813-9.237,13.821l-1.31,1.769c-3.003,4.06-5.839,7.895-8.931,11.374   c-2.123,2.39-4.672,4.642-7.37,7.026c-1.576,1.392-3.206,2.831-4.816,4.358c-3.567,3.383-7.838,7.341-12.461,11.043   c-1.387,1.109-2.755,2.243-4.123,3.378c-3.074,2.548-5.979,4.955-8.987,6.988c-5.674,3.832-10.047,6.583-14.179,8.92   c-3.83,2.167-7.901,4.051-12.211,6.046c-0.95,0.439-1.899,0.879-2.848,1.322l-1.557,0.729c-4.737,2.221-9.212,4.318-13.787,6.046   c-4.863,1.838-9.897,3.317-15.227,4.884l-3.62,1.072c-4.608,1.371-8.961,2.667-13.33,3.605c-3.142,0.674-6.518,1.023-10.092,1.393   c-2.128,0.221-4.327,0.448-6.563,0.756c-1.087,0.149-2.174,0.304-3.261,0.458c-4.639,0.658-9.021,1.28-13.373,1.547   c-4.011,0.247-8.114,0.149-12.459,0.049c-1.428-0.034-2.855-0.067-4.285-0.089c-5.511-0.082-11.123-0.386-16.682-0.902   c-1.633-0.151-3.268-0.282-4.903-0.413c-4.113-0.327-7.998-0.637-11.725-1.285c-4.874-0.848-9.725-2.107-14.861-3.441l-1.401-0.363   c-1.229-0.318-2.459-0.628-3.688-0.938c-4.331-1.091-8.422-2.121-12.34-3.493c-3.059-1.071-6.448-0.595-9.091,1.281   c-1.268,0.899-2.29,2.067-3.009,3.397c-1.962,1.012-3.98,1.982-6.084,2.995c-2.719,1.309-5.53,2.662-8.312,4.157   c-2.825,1.518-5.569,3.104-8.222,4.637c-2.698,1.56-5.247,3.032-7.84,4.42c-3.897,2.084-7.79,4.179-11.697,6.281l-4.579,2.462   c-1.389,0.747-2.764,1.514-4.121,2.286c-0.091-2.692-0.255-5.345-0.414-7.926c-0.139-2.259-0.271-4.393-0.356-6.535   c-0.108-2.691-0.319-5.323-0.524-7.868c-0.229-2.849-0.445-5.54-0.511-8.173c-0.099-3.936,0.019-7.898,0.144-12.094   c0.036-1.21,0.072-2.42,0.103-3.629c0.116-4.583,0.64-9.281,1.194-14.256l0.127-1.145c0.391-3.518-1.107-6.979-3.938-9.104   c-5.438-4.078-9.395-7.266-12.831-10.334c-3.938-3.519-7.881-7.367-11.72-11.442c-3.223-3.421-6.178-7.157-9.307-11.112   l-1.17-1.479c-3.287-4.142-6.436-8.48-9.628-13.265c-1.112-1.667-2.253-3.288-3.356-4.855c-2.136-3.034-4.154-5.9-5.803-8.845   c-1.537-2.741-2.856-5.807-4.254-9.052c-0.812-1.887-1.651-3.835-2.569-5.803c-1.401-3.278-2.721-6.72-4.118-10.36   c-1.355-3.533-2.754-7.18-4.246-10.696c-1.298-4.381-2.139-8.993-3.027-13.865c-0.167-0.918-0.334-1.835-0.504-2.749   c-1.26-6.776-2.023-12.284-2.404-17.331c-0.37-4.927-0.221-9.971-0.064-15.311l0.064-2.242c0.182-6.587,0.443-12.096,1.124-17.569   l0.296-2.408c0.646-5.276,1.256-10.26,2.306-15.108c1.35-6.238,2.788-11.835,4.394-17.104c1.844-5.515,4.175-11.013,6.405-16.173   c1.895-4.382,4.206-8.588,6.651-13.04l1.35-2.462c0.787-1.442,1.554-2.893,2.32-4.342c2.053-3.882,3.992-7.55,6.221-10.859   c3.273-4.86,6.775-9.58,10.409-14.027c3.649-4.468,7.84-8.826,11.821-12.908c2.967-3.042,6.302-5.906,9.832-8.938   c1.075-0.923,2.153-1.849,3.226-2.784c1.814-1.58,3.539-3.204,5.208-4.774c2.109-1.985,4.128-3.884,6.198-5.587   c2.307-0.429,4.042-1.459,5.28-2.514c3.906-2.991,8.216-5.707,12.389-8.336c1.355-0.854,2.696-1.73,4.033-2.606   c3.109-2.035,6.045-3.956,8.989-5.449c3.352-1.699,6.968-3.13,10.797-4.646c1.129-0.447,2.259-0.895,3.385-1.35   c4.544-1.837,9.314-3.405,14.627-5.119c4.971-1.603,9.964-3.058,14.844-4.326c4.696-1.042,8.954-1.933,13.01-2.723   c4.962-0.965,9.014-1.608,12.756-2.023c3.775-0.42,7.791-0.629,12.043-0.85l1.367-0.071c4.929-0.259,9.845-0.757,14.062-1.222   c0.939-0.014,1.855-0.057,2.747-0.1c1.474-0.07,3.831-0.182,4.882,0.059c1.479,0.807,3.152,1.196,4.85,1.221h0.095   c5.129,0,10.432,0,15.51,0.455c4.656,0.416,9.699,1.148,15.418,2.238c4.197,0.799,9.694,1.928,14.993,3.583   c0.703,0.22,1.429,0.361,2.162,0.421c0.131,0.03,0.267,0.064,0.403,0.097c0.643,0.154,1.427,0.342,2.31,0.469   c5.367,1.581,10.229,3.051,14.925,4.745l1.872,0.674c4.749,1.708,9.233,3.32,13.632,5.227c1.42,0.615,2.852,1.22,4.29,1.829   c3.753,1.586,7.302,3.086,10.815,4.834c4.756,2.616,9.441,5.415,13.928,8.32c3.65,2.365,7.143,5.039,10.84,7.869   c0.791,0.606,1.581,1.21,2.373,1.813c3.498,2.658,6.806,5.621,10.308,8.757l2.09,1.869c1.261,1.123,2.538,2.226,3.814,3.328   c2.989,2.582,5.813,5.02,8.294,7.613c3.834,4.007,7.392,8.296,10.665,12.333l1.594,1.96c3.033,3.721,5.897,7.236,8.397,10.913   c2.453,3.606,4.635,7.514,6.944,11.651l1.328,2.374c0.721,1.283,1.457,2.561,2.195,3.84c2.074,3.597,4.034,6.995,5.608,10.462   c1.445,3.179,2.616,6.667,3.855,10.359c0.555,1.654,1.111,3.31,1.697,4.958c1.743,4.904,3.098,10.047,4.532,15.492   c1.309,5.487,2.338,10.691,3.145,15.906c0.321,2.074,0.694,4.097,1.056,6.054c0.656,3.553,1.275,6.91,1.498,10.098   C243.9,259.196,243.778,262.951,243.648,266.926z"/><path d="M174.928,208.425c-3.69,2.214-7.539,4.433-11.261,6.579l-3.739,2.16c-2.332,1.35-4.613,2.749-6.818,4.102   c-2.764,1.695-5.373,3.296-8.032,4.781l-1.643,0.917c-4.425,2.472-9.001,5.028-13.502,7.449c-2.428,1.306-5.022,2.481-7.771,3.726   c-2.56,1.159-5.206,2.358-7.855,3.73c-2.226,1.152-4.431,2.343-6.636,3.535c-2.976,1.607-5.785,3.125-8.654,4.554   c-2.491,1.241-4.912,2.547-7.254,3.81c-2.788,1.503-5.421,2.923-8.087,4.199c-2.877,1.377-5.795,2.655-8.885,4.007   c-0.39,0.171-0.782,0.343-1.177,0.516c-0.837-1.027-1.671-2.048-2.502-3.064c-1.957-2.394-3.893-4.761-5.783-7.13l-1.443-1.809   c-3.323-4.167-6.76-8.475-10.173-12.672c-1.529-1.88-3.026-3.788-4.526-5.7c-2.282-2.906-4.641-5.912-7.15-8.875   c-4.601-5.435-8.515-9.946-12.318-14.197c-0.516-0.576-1.095-1.089-1.726-1.529c-0.03-0.037-0.06-0.073-0.09-0.11   c-6.241-7.475-12.716-5.381-15.211-4.134c-0.785,0.393-1.515,0.887-2.171,1.47c-1.465,1.303-2.957,2.574-4.447,3.845   c-3.129,2.669-6.365,5.43-9.463,8.527c-1.864,1.864-3.592,3.762-5.263,5.597c-2.305,2.531-4.483,4.923-6.771,6.964   c-1.939,1.672-3.935,3.256-6.047,4.933c-2.268,1.8-4.613,3.662-6.89,5.648c-2.312,2.017-4.576,4.055-6.766,6.026   c-1.915,1.724-3.82,3.439-5.74,5.125c-1.964,1.724-3.995,3.379-6.145,5.132c-2.191,1.787-4.458,3.634-6.691,5.594   c-2.066,1.813-4.108,3.673-6.082,5.471c-2.069,1.885-4.209,3.834-6.337,5.691c-2.085,1.82-4.11,3.704-6.068,5.526   c-2.043,1.901-4.156,3.868-6.272,5.696c-0.064,0.056-0.128,0.112-0.191,0.169c-5.726,5.206-11.022,10.347-16.396,15.595   c-1.897,1.853-3.815,3.701-5.75,5.566c-3.346,3.225-6.805,6.56-10.303,10.057c-0.466,0.466-0.884,0.977-1.25,1.524   c-0.429,0.644-1.096,1.435-1.802,2.272c-1.832,2.174-4.112,4.881-5.348,8.587c-1.297,3.893-0.085,8.183,3.057,10.82   c3.143,2.64,7.578,3.091,11.187,1.138c2.799-1.513,5.533-3.146,8.176-4.726c2.64-1.577,5.132-3.066,7.612-4.399   c5.273-2.836,10.547-5.672,15.837-8.473c2.981-1.577,6.102-3.139,9.119-4.648c2.29-1.146,4.58-2.292,6.858-3.466   c2.752-1.419,5.582-2.724,8.579-4.104c2.469-1.138,5.021-2.314,7.562-3.575c2.791-1.386,5.401-2.895,7.926-4.354   c2.68-1.548,5.211-3.011,7.74-4.205c3.507-1.657,7.038-3.191,10.775-4.815c1.832-0.796,3.664-1.592,5.488-2.401   c2.594-1.149,5.207-2.225,7.909-3.313c0.139,0.255,0.29,0.504,0.452,0.746c1.412,2.119,2.584,3.606,4.274,4.847   c0.344,0.565,0.811,1.601,1.111,2.266c0.301,0.666,0.589,1.297,0.873,1.865c0.185,0.369,0.392,0.727,0.62,1.069   c1.089,1.638,2.389,2.912,3.888,3.819c3.468,5.001,6.487,9.219,9.381,13.11c4.517,6.073,8.422,10.98,12.292,15.444   c4.834,5.579,10.056,10.567,14.065,14.29c0.675,0.627,1.427,1.152,2.232,1.566c2.3,1.75,4.685,2.476,6.92,2.476   c2.999,0,5.73-1.308,7.628-3.204c0.529-0.529,0.986-1.104,1.372-1.711c1.326-1.164,2.73-2.32,4.19-3.522   c2.27-1.869,4.617-3.803,6.907-5.961c2.189-2.061,4.294-4.167,6.329-6.205c2.004-2.007,3.897-3.903,5.848-5.74   c1.905-1.794,3.889-3.528,5.989-5.364c2.206-1.93,4.487-3.924,6.723-6.039c4.138-3.913,8.276-7.832,12.403-11.769   c2.298-2.193,4.446-4.447,6.524-6.628c1.876-1.969,3.647-3.827,5.474-5.593c1.796-1.735,3.619-3.422,5.548-5.207   c2.274-2.104,4.625-4.279,6.932-6.544c2.31-2.269,4.489-4.602,6.598-6.857c1.809-1.934,3.517-3.761,5.279-5.529l2.522-2.526   c3.14-3.142,6.387-6.391,9.574-9.665c1.683-1.729,3.478-3.414,5.377-5.199c2.254-2.117,4.584-4.306,6.854-6.693   c2.571-2.575,5.065-5.221,7.479-7.782c2.451-2.601,4.768-5.057,7.163-7.452c3.571-3.571,3.919-9.245,0.811-13.225   C184.846,206.864,179.257,205.827,174.928,208.425z M122.281,261.506c-2.093,2.055-4.232,4.036-6.499,6.133   c-1.922,1.778-3.91,3.618-5.862,5.504c-2.123,2.052-4.122,4.149-6.055,6.177c-2.005,2.104-3.898,4.091-5.852,5.955   c-4.106,3.917-8.224,7.815-12.341,11.71c-1.95,1.845-3.987,3.626-6.144,5.511c-2.146,1.875-4.363,3.814-6.539,5.864   c-2.172,2.047-4.264,4.141-6.285,6.165c-2.018,2.02-3.922,3.927-5.89,5.779c-1.807,1.702-3.8,3.344-5.91,5.081   c-0.261,0.215-0.523,0.432-0.786,0.648c-2.553-2.496-5.265-5.286-7.793-8.203c-3.536-4.079-7.145-8.617-11.357-14.281   c-3.242-4.359-6.669-9.178-10.785-15.166c-0.682-0.992-1.532-1.839-2.497-2.513c-0.993-2.082-2.413-4.66-4.656-6.903   c-0.253-0.253-0.498-0.48-0.734-0.685c-0.745-2.167-2.018-4.316-3.832-6.479c-0.704-2.021-2.048-3.794-3.875-5.019   c-2.768-1.855-6.28-2.211-9.366-0.946c-1.804,0.741-3.614,1.464-5.422,2.188c-3.759,1.504-7.647,3.059-11.498,4.767   c-1.779,0.789-3.565,1.565-5.351,2.341c-3.715,1.614-7.557,3.284-11.347,5.075c-3.275,1.547-6.289,3.288-9.203,4.971   c-2.36,1.364-4.589,2.652-6.815,3.758c-2.175,1.079-4.377,2.098-6.699,3.168c1.402-1.3,2.764-2.546,4.138-3.746   c2.289-1.997,4.509-4.02,6.655-5.975c1.995-1.817,3.878-3.533,5.805-5.223c1.961-1.721,3.99-3.375,6.138-5.125   c2.194-1.789,4.462-3.638,6.7-5.602c1.984-1.742,3.952-3.513,5.929-5.293c2.133-1.92,4.338-3.905,6.532-5.819   c1.927-1.681,3.991-3.319,6.176-5.054c2.198-1.745,4.47-3.548,6.741-5.509c0.036-0.031,0.072-0.063,0.107-0.094   c3.097-2.752,5.753-5.67,8.323-8.493c1.586-1.742,3.084-3.387,4.618-4.92c2.049-2.05,4.269-4.001,6.607-6.007   c2.904,3.292,5.956,6.833,9.413,10.916c2.27,2.681,4.413,5.411,6.681,8.301c1.572,2.003,3.141,4.001,4.743,5.97   c3.353,4.124,6.608,8.205,10.055,12.525l1.446,1.813c1.939,2.43,3.924,4.858,5.931,7.313c1.735,2.123,3.487,4.266,5.24,6.449   c2.623,4.235,6.973,6.297,11.953,5.575c1.177-0.091,2.331-0.389,3.408-0.884c2.181-1.002,4.383-1.966,6.584-2.93   c3.105-1.36,6.316-2.766,9.497-4.288c3.101-1.484,6.071-3.086,8.945-4.636c2.302-1.242,4.477-2.415,6.679-3.511   c3.165-1.577,6.255-3.246,9.242-4.86c2.103-1.136,4.205-2.272,6.327-3.371c0.416-0.215,0.836-0.427,1.26-0.637   C123.938,259.849,123.115,260.687,122.281,261.506z"/></g></svg>