<?xml version="1.0" ?><svg data-name="Layer 2" id="Layer_2" viewBox="0 0 250 250" xmlns="http://www.w3.org/2000/svg"><title/><path d="M203,12H158a3,3,0,0,0-3,3V132.66L94.9,14.11C94.38,12,92,12,90.07,12L47,12h0a3.27,3.27,0,0,0-.7.09l-.19.06a2.72,2.72,0,0,0-.47.19l-.18.1a2.36,2.36,0,0,0-.45.33l-.1.08a2.76,2.76,0,0,0-.43.54l0,0a1.17,1.17,0,0,0,0,.11,3,3,0,0,0-.21.49,1.59,1.59,0,0,0-.07.2,2.74,2.74,0,0,0-.08.5,1.36,1.36,0,0,0,0,.2S44,15,44,15V234a3,3,0,0,0,3,3H92a3,3,0,0,0,3-3V116.32l60.32,119h0A3,3,0,0,0,158,237H203a3,3,0,0,0,3-3V15A3,3,0,0,0,203,12Zm-42,6h39V221.42l-39-76.93ZM89,231H50V27.55l39,76.94Zm70.86,0L51.88,18l38.27,0,108,213Z"/></svg>