<?xml version="1.0" ?><!DOCTYPE svg  PUBLIC '-//W3C//DTD SVG 1.1//EN'  'http://www.w3.org/Graphics/SVG/1.1/DTD/svg11.dtd'><svg enable-background="new 0 0 512 512" height="512px" id="Layer_1" version="1.1" viewBox="0 0 512 512" width="512px" xml:space="preserve" xmlns="http://www.w3.org/2000/svg" xmlns:xlink="http://www.w3.org/1999/xlink"><g><path d="M512,255.5C512,397.125,397.125,512,255.5,512C113.813,512-1,397.125-1,255.5C-1,113.813,113.813-1,255.5-1   C397.125-1,512,113.813,512,255.5 M273.438,62.938c-102.438,0-162.063,81.438-162.063,142.688c0,37.063,22,70.063,52.125,82.375   c4.938,2,9.375,0.063,10.813-5.438c1-3.75,3.313-13.313,4.375-17.313c1.438-5.375,0.938-7.25-3.063-12   c-8.688-10.25-14.25-23.5-14.25-42.25c0-54.5,40.75-103.313,106.125-103.313c57.938,0,89.75,35.375,89.75,82.625   C357.25,252.5,329.75,305,288.875,305c-22.563,0-39.438-18.688-34-41.563c6.438-27.313,19-56.813,19-76.5   c0-17.625-9.438-32.375-29.063-32.375c-23.063,0-41.563,23.875-41.563,55.813c0,20.375,6.875,34.125,6.875,34.125   s-31.625,100-35.75,117.5c-8.25,34.875,14.75,93.625,15.375,97.938c0.313,2.563,3.625,3.125,5.125,1.25   c2.125-2.813,37.563-52.688,46.875-86.563c2.688-9.625-0.813-59.313-0.813-59.313c7.5,14.313,29.375,34.875,52.688,34.875   c69.313,0,124.313-71.188,124.313-155.75C417.938,130.5,355.75,62.938,273.438,62.938"/></g></svg>