<?xml version="1.0" ?><!DOCTYPE svg  PUBLIC '-//W3C//DTD SVG 1.1//EN'  'http://www.w3.org/Graphics/SVG/1.1/DTD/svg11.dtd'><svg height="512px" style="enable-background:new 0 0 512 512;" version="1.1" viewBox="0 0 512 512" width="512px" xml:space="preserve" xmlns="http://www.w3.org/2000/svg" xmlns:xlink="http://www.w3.org/1999/xlink"><g id="comp_x5F_267-python"><g><path d="    M474.975,209.372c-7.575-30.395-21.935-53.315-52.527-53.315h-39.443v46.626c0,36.199-30.692,66.691-65.71,66.691H212.24    c-28.724,0-52.528,24.594-52.528,53.414v100.138c0,28.524,24.788,45.246,52.528,53.413c33.247,9.737,65.215,11.509,105.054,0    c26.462-7.675,52.529-23.116,52.529-53.413v-20.997H264.867v-32.417h157.58c30.593,0,41.904-21.346,52.527-53.314    C485.992,283.244,485.501,251.57,474.975,209.372L474.975,209.372z" style="fill:none;stroke:#000000;stroke-width:20;stroke-linecap:round;stroke-linejoin:round;stroke-miterlimit:10;"/><path d="    M314.422,428.707c5.694,0,10.31,4.668,10.31,10.413c0,5.794-4.615,10.463-10.31,10.463c-5.641,0-10.309-4.719-10.309-10.463    C304.164,433.323,308.781,428.707,314.422,428.707z" style="fill:none;stroke:#000000;stroke-width:20;stroke-linecap:round;stroke-linejoin:round;stroke-miterlimit:10;"/><path d="    M194.005,240.252h105.054c29.216,0,52.529-24.101,52.529-53.414V86.603c0-28.525-24.002-49.871-52.529-54.691    c-35.214-5.804-73.478-5.509-105.054,0.097c-44.462,7.87-52.527,24.298-52.527,54.693v21.453H246.63v31.959H102.033    c-30.591,0-57.349,18.394-65.709,53.315c-9.64,40.035-10.033,65.02,0,106.826c7.476,31.085,25.28,53.314,55.872,53.314h36.101    v-48.001C128.296,270.845,158.298,240.252,194.005,240.252L194.005,240.252z" style="fill:none;stroke:#000000;stroke-width:20;stroke-linecap:round;stroke-linejoin:round;stroke-miterlimit:10;"/><path d="    M187.415,80.82c-5.693,0-10.309-4.667-10.309-10.411c0.051-5.796,4.616-10.463,10.309-10.463c5.642,0,10.309,4.718,10.309,10.463    C197.724,76.153,193.108,80.82,187.415,80.82z" style="fill:none;stroke:#000000;stroke-width:20;stroke-linecap:round;stroke-linejoin:round;stroke-miterlimit:10;"/></g></g><g id="Layer_1"/></svg>