<?xml version="1.0" ?><!DOCTYPE svg  PUBLIC '-//W3C//DTD SVG 1.1//EN'  'http://www.w3.org/Graphics/SVG/1.1/DTD/svg11.dtd'><svg enable-background="new 0 0 128 128" height="128px" id="Layer_1" version="1.1" viewBox="0 0 128 128" width="128px" xml:space="preserve" xmlns="http://www.w3.org/2000/svg" xmlns:xlink="http://www.w3.org/1999/xlink"><path d="M112.005,50.192h-96c-0.778,0-1.485-0.451-1.813-1.157s-0.217-1.538,0.284-2.132L37.5,19.595  c0.38-0.451,0.939-0.711,1.529-0.711h49.957c0.59,0,1.149,0.26,1.529,0.711l23.019,27.308c0.501,0.595,0.612,1.427,0.284,2.132  S112.783,50.192,112.005,50.192z M20.308,46.192h87.396L88.057,22.884H39.959L20.308,46.192z"/><polygon points="64.005,108.299 14.475,49.48 17.535,46.904 64.005,102.088 110.475,46.904 113.535,49.48 "/><path d="M64.005,107.193L64.005,107.193c-0.849,0-1.604-0.535-1.886-1.335L42.023,48.857c-0.221-0.625-0.117-1.317,0.275-1.851  l20.096-27.308c0.752-1.024,2.467-1.024,3.221,0l20.1,27.308c0.393,0.533,0.496,1.226,0.275,1.851l-20.1,57.001  C65.609,106.658,64.854,107.193,64.005,107.193z M46.147,48.525l17.857,50.654l17.861-50.654L64.005,24.258L46.147,48.525z"/><rect height="4" transform="matrix(0.1759 0.9844 -0.9844 0.1759 68.1737 -12.3602)" width="27.74" x="27.599" y="32.538"/><rect height="27.741" transform="matrix(0.9844 0.176 -0.176 0.9844 7.431 -14.695)" width="4" x="84.545" y="20.668"/></svg>