<?xml version="1.0" ?><!DOCTYPE svg  PUBLIC '-//W3C//DTD SVG 1.1//EN'  'http://www.w3.org/Graphics/SVG/1.1/DTD/svg11.dtd'><svg enable-background="new 0 0 53.763 53.763" height="53.763px" id="Layer_1" version="1.1" viewBox="0 0 53.763 53.763" width="53.763px" xml:space="preserve" xmlns="http://www.w3.org/2000/svg" xmlns:xlink="http://www.w3.org/1999/xlink"><circle cx="26.373" cy="26.657" r="26.881"/><path d="M40.457,14.655c-0.115-0.638-0.363-1.255-0.776-1.822c-1.363-1.871-3.802-2.55-5.989-2.8  c-2.491-0.285-5.063-0.124-7.499,0.47c-0.674,0.165-1.338,0.366-1.989,0.604c-1.542,0.565-2.979,1.384-4.34,2.298  c-1.268,0.853-2.525,1.752-3.663,2.775c-1.441,1.296-2.595,2.946-3.279,4.764c-0.364,1.029-0.642,2.247-0.408,3.573  c0.215,1.229,0.734,2.325,1.367,3.221c0.63,0.903,1.341,1.647,2.042,2.304c1.341,1.256,2.659,2.272,3.687,3.324  c-0.39,0.16-0.784,0.328-1.187,0.518c-0.345,0.175-0.692,0.334-1.045,0.532c-0.352,0.222-0.666,0.451-0.981,0.697  c-0.623,0.497-1.229,1.043-1.779,1.712c-0.542,0.668-1.076,1.441-1.318,2.49c-0.072,0.253-0.083,0.54-0.105,0.817  c0.004,0.259,0.006,0.509,0.052,0.784c0.078,0.536,0.278,1.149,0.71,1.672c0.411,0.517,1.081,0.899,1.573,1.01  c0.527,0.203,1.076,0.238,1.622,0.264c1.088-0.015,2.086-0.343,2.995-0.795c0.918-0.471,1.714-1.045,2.439-1.898  c0.389-0.414,0.657-0.915,0.925-1.421c0.23-0.495,0.391-0.984,0.522-1.52c0.267-1.057,0.248-2.288-0.1-3.405  c-0.121-0.4-0.289-0.77-0.474-1.125c0.193-0.065,0.396-0.144,0.58-0.199c1.612-0.486,3.694-0.587,5.228,0.217  c0.435,0.228,0.786,0.548,1.166,0.852c0.284,0.229,0.451,0.548,0.643,0.848c0.428,0.668,0.396,1.582,0.123,2.3  c-0.135,0.354-0.266,0.724-0.568,0.968c-0.119,0.098-0.813,0.417-0.724,0.656c0.077,0.205,0.347,0.398,1.134-0.074  c1.668-1,1.878-3.244,0.96-4.819c-0.717-1.228-1.921-2.048-3.272-2.436c-0.734-0.21-1.536-0.337-2.301-0.363  c-0.685-0.024-1.379,0.001-2.05,0.142c-0.196,0.041-1.759,0.588-1.808,0.525c-0.093-0.122-0.186-0.246-0.28-0.362  c-1.36-1.587-2.902-2.748-4.203-3.994c-1.146-1.071-2.47-2.483-2.567-4.139c-0.117-2.01,1.615-3.937,2.944-5.248  c0.431-0.425,0.892-0.821,1.371-1.19c2.151-1.662,4.792-2.976,7.361-3.839c0.731-0.246,1.478-0.454,2.232-0.619  c1.054-0.229,2.16-0.346,3.238-0.344c1.519,0.001,3.042,0.257,4.304,1.163c0.782,0.561,1.198,1.417,1.173,2.378  c-0.072,2.775-2.73,4.982-5.06,6.011c-2.619,1.158-6.114,2.164-8.209,1.208c-1.029-0.469-2.01-1.328-2.292-0.866  c-0.209,0.342,2.04,1.855,2.265,1.976c2.046,1.102,5.288,0.795,7.769,0.045c2.74-0.828,5.225-2.621,6.727-5.077  C40.2,18.012,40.751,16.267,40.457,14.655z M21.385,36.817c0,0.563-0.122,1.163-0.316,1.745c-0.224,0.49-0.428,0.914-0.825,1.318  c-0.763,0.832-1.751,1.364-2.6,1.449c-0.111,0.032-0.207,0.004-0.309,0.002c-0.098-0.014-0.206,0.008-0.296-0.025  c-0.171-0.063-0.403-0.104-0.479-0.16c-0.086-0.064-0.152-0.117-0.214-0.223c-0.052-0.117-0.114-0.269-0.14-0.479  c-0.018-0.097-0.02-0.221-0.027-0.322c0.009-0.092-0.003-0.178,0.013-0.275c0.025-0.191,0.069-0.396,0.147-0.609  c0.151-0.424,0.395-0.858,0.678-1.265c0.571-0.8,1.284-1.575,1.999-2.077c0.578-0.389,1.201-0.751,1.827-1.09  C21.207,35.473,21.403,36.138,21.385,36.817z" fill="#FFFFFF"/></svg>