<?xml version="1.0" ?><!DOCTYPE svg  PUBLIC '-//W3C//DTD SVG 1.1//EN'  'http://www.w3.org/Graphics/SVG/1.1/DTD/svg11.dtd'><svg height="512px" style="enable-background:new 0 0 512 512;" version="1.1" viewBox="0 0 512 512" width="512px" xml:space="preserve" xmlns="http://www.w3.org/2000/svg" xmlns:xlink="http://www.w3.org/1999/xlink"><g id="comp_x5F_307-slack-hash"><g><g id="XMLID_23_"><g><g><path d="M66.434,287.166c-24.035,0-45.51-15.254-53.436-37.955c-2.103-6.036-3.168-12.309-3.168-18.646       c0-24.031,15.257-45.503,37.965-53.431l320.48-111.791c6.029-2.104,12.302-3.172,18.642-3.172       c24.037,0,45.508,15.256,53.425,37.962c4.976,14.27,4.099,29.625-2.472,43.236c-6.57,13.614-18.048,23.853-32.318,28.828       L85.074,283.996C79.041,286.1,72.771,287.166,66.434,287.166z M386.917,82.171c-4.09,0-8.145,0.691-12.051,2.056       L54.385,196.018c-14.687,5.127-24.555,19.011-24.555,34.547c0,4.093,0.691,8.15,2.053,12.061       c5.124,14.676,19.01,24.541,34.551,24.541c4.091,0,8.146-0.691,12.056-2.053l320.477-111.8       c9.226-3.218,16.645-9.836,20.893-18.638s4.816-18.731,1.599-27.958C416.337,92.035,402.457,82.171,386.917,82.171z"/></g><g><path d="M125.1,449.836c-24.034,0-45.506-15.258-53.431-37.967c-2.104-6.035-3.169-12.303-3.169-18.635       c0-24.041,15.254-45.514,37.957-53.432l320.479-111.8c6.031-2.103,12.302-3.168,18.639-3.168       c24.037,0,45.512,15.257,53.436,37.966c10.272,29.457-5.338,61.785-34.797,72.066l-320.48,111.801       C137.704,448.77,131.436,449.836,125.1,449.836z M445.575,244.835c-4.09,0-8.146,0.69-12.055,2.054L113.044,358.688       C98.363,363.807,88.5,377.691,88.5,393.234c0,4.086,0.691,8.141,2.053,12.049c5.125,14.684,19.008,24.553,34.547,24.553       c4.088,0,8.142-0.691,12.048-2.053l320.479-111.801c19.047-6.646,29.143-27.549,22.502-46.594       C475.003,254.703,461.116,244.835,445.575,244.835z"/></g><g><path d="M230.57,502.176c-24.031,0-45.504-15.258-53.432-37.965L65.348,143.729c-4.98-14.269-4.104-29.624,2.469-43.236       c6.57-13.609,18.048-23.848,32.318-28.83c6.031-2.103,12.301-3.169,18.637-3.169c24.042,0,45.514,15.254,53.432,37.958       l111.799,320.479c10.27,29.463-5.336,61.793-34.786,72.074C243.182,501.109,236.91,502.176,230.57,502.176z M118.771,88.494       c-4.088,0-8.143,0.691-12.049,2.053c-9.225,3.221-16.646,9.842-20.896,18.643c-4.248,8.8-4.814,18.726-1.595,27.949       l111.791,320.484c5.126,14.684,19.011,24.553,34.548,24.553c4.093,0,8.149-0.691,12.059-2.053       c19.038-6.646,29.128-27.555,22.487-46.607L153.318,113.038C148.199,98.357,134.316,88.494,118.771,88.494z"/></g><g><path d="M393.229,443.506c-24.035,0-45.504-15.254-53.422-37.957l-111.8-320.479c-10.27-29.465,5.34-61.797,34.797-72.076       c6.03-2.103,12.3-3.169,18.635-3.169c24.034,0,45.507,15.258,53.432,37.966l111.8,320.481       c4.977,14.271,4.098,29.627-2.477,43.24c-6.573,13.613-18.053,23.85-32.322,28.826       C405.84,442.439,399.568,443.506,393.229,443.506z M281.439,29.824c-4.088,0-8.142,0.691-12.048,2.053       c-19.045,6.646-29.14,27.555-22.499,46.606l111.799,320.478c5.12,14.682,19,24.545,34.538,24.545       c4.092,0,8.15-0.691,12.059-2.055c9.225-3.215,16.646-9.834,20.896-18.637s4.82-18.73,1.603-27.957l-111.8-320.479       C310.862,39.692,296.979,29.824,281.439,29.824z"/></g></g></g></g></g><g id="Layer_1"/></svg>