<?xml version="1.0" ?><!DOCTYPE svg  PUBLIC '-//W3C//DTD SVG 1.1//EN'  'http://www.w3.org/Graphics/SVG/1.1/DTD/svg11.dtd'><svg height="512px" style="enable-background:new 0 0 512 512;" version="1.1" viewBox="0 0 512 512" width="512px" xml:space="preserve" xmlns="http://www.w3.org/2000/svg" xmlns:xlink="http://www.w3.org/1999/xlink"><g id="comp_x5F_310-snapchat"><g><path d="    M484.962,378.791c-4.681,10.922-24.471,18.947-60.519,24.544c-1.854,2.503-3.391,13.192-5.845,21.521    c-1.46,5.001-5.052,7.968-10.897,7.968l-0.267-0.002c-8.44,0-17.253-3.885-34.904-3.885c-23.829,0-32.041,5.43-50.541,18.495    c-19.615,13.87-38.426,25.843-66.508,24.617c-28.431,2.097-52.131-15.19-65.47-24.621c-18.61-13.157-26.799-18.49-50.528-18.49    c-16.948,0-27.615,4.239-34.906,4.239c-7.253,0-10.074-4.422-11.16-8.121c-2.429-8.254-3.958-19.104-5.861-21.68    c-18.579-2.882-60.473-10.192-61.541-28.885c-0.268-4.864,3.169-9.147,7.976-9.944c62.517-10.292,90.674-74.481,91.845-77.206    c0.067-0.158,0.139-0.309,0.212-0.463c3.336-6.77,4.082-12.442,2.213-16.849c-4.537-10.688-24.143-14.521-32.39-17.785    c-21.307-8.415-24.273-18.084-23.012-24.71c2.189-11.532,19.518-18.629,29.651-13.884c8.013,3.755,15.132,5.658,21.155,5.658    c4.511,0,7.377-1.083,8.947-1.951c-1.835-32.286-6.379-78.423,5.11-104.189c30.342-68.027,94.655-73.314,113.631-73.314    c0.848,0,8.211-0.079,9.083-0.079c46.851,0,91.869,24.059,113.852,73.35c11.479,25.739,6.963,71.687,5.117,104.225    c1.421,0.784,3.914,1.745,7.727,1.923c5.745-0.257,12.409-2.147,19.826-5.622c5.469-2.557,12.942-2.211,18.399,0.052l0.027,0.009    c8.514,3.042,13.869,9.177,14.005,16.055c0.165,8.758-7.657,16.32-23.25,22.477c-1.902,0.751-4.218,1.488-6.678,2.27    c-8.803,2.79-22.103,7.011-25.711,15.517c-1.867,4.406-1.128,10.072,2.211,16.843c0.077,0.153,0.149,0.309,0.214,0.463    c1.169,2.724,29.303,66.898,91.848,77.206C483.797,365.493,488.052,371.62,484.962,378.791L484.962,378.791z" style="fill:none;stroke:#000000;stroke-width:20;stroke-linecap:round;stroke-linejoin:round;stroke-miterlimit:10;"/></g></g><g id="Layer_1"/></svg>