<?xml version="1.0" ?><!DOCTYPE svg  PUBLIC '-//W3C//DTD SVG 1.1//EN'  'http://www.w3.org/Graphics/SVG/1.1/DTD/svg11.dtd'><svg height="512px" style="enable-background:new 0 0 512 512;" version="1.1" viewBox="0 0 512 512" width="512px" xml:space="preserve" xmlns="http://www.w3.org/2000/svg" xmlns:xlink="http://www.w3.org/1999/xlink"><g id="comp_x5F_315-spotify"><g><path d="    M256,36.001c-121.445,0-220,98.556-220,219.999c0,121.442,98.555,219.999,220,219.999c121.442,0,219.999-98.557,219.999-219.999    C475.999,134.557,377.442,36.001,256,36.001z M345.33,359.702c-3.727,0-6.031-1.153-9.492-3.194    c-55.354-33.354-119.757-34.775-183.362-21.735c-3.46,0.888-7.984,2.309-10.556,2.309c-8.604,0-14.016-6.832-14.016-14.018    c0-9.136,5.412-13.482,12.065-14.902c72.652-16.057,146.902-14.639,210.241,23.241c5.411,3.461,8.604,6.566,8.604,14.637    C358.813,354.112,352.516,359.702,345.33,359.702L345.33,359.702z M369.193,301.508c-4.614,0-7.716-2.04-10.912-3.726    c-55.443-32.822-138.121-46.04-211.66-26.079c-4.258,1.152-6.565,2.304-10.556,2.304c-9.492,0-17.21-7.717-17.21-17.207    c0-9.493,4.613-15.791,13.75-18.364c24.662-6.919,49.855-12.063,86.76-12.063c57.569,0,113.192,14.281,157.014,40.36    c7.185,4.259,10.024,9.758,10.024,17.477C386.313,293.791,378.861,301.508,369.193,301.508z M396.691,233.911    c-4.612,0-7.45-1.152-11.441-3.459c-63.161-37.701-176.089-46.75-249.185-26.347c-3.193,0.887-7.185,2.306-11.445,2.306    c-11.709,0-20.668-9.137-20.668-20.935c0-12.064,7.453-18.896,15.436-21.201c31.226-9.138,66.176-13.484,104.233-13.484    c64.759,0,132.62,13.484,182.209,42.404c6.92,3.99,11.442,9.49,11.442,20.048C417.272,225.307,407.517,233.911,396.691,233.911    L396.691,233.911z" style="fill:none;stroke:#000000;stroke-width:20;stroke-linecap:round;stroke-linejoin:round;stroke-miterlimit:10;"/></g></g><g id="Layer_1"/></svg>