<?xml version="1.0" ?><!DOCTYPE svg  PUBLIC '-//W3C//DTD SVG 1.1//EN'  'http://www.w3.org/Graphics/SVG/1.1/DTD/svg11.dtd'><svg height="512px" style="enable-background:new 0 0 512 512;" version="1.1" viewBox="0 0 512 512" width="512px" xml:space="preserve" xmlns="http://www.w3.org/2000/svg" xmlns:xlink="http://www.w3.org/1999/xlink"><g id="comp_x5F_332-swift"><g><g id="_x32_3-swift_6_"><g><g><g><path d="        M308.203,59.211C505.415,191.17,441.463,336.18,441.463,336.18s56.017,62.159,33.499,116.609c0,0-23.239-38.037-61.817-38.037        c-37.295,0-59.357,38.037-134.64,38.037c-167.435,0-246.804-137.58-246.804-137.58        c150.892,97.832,253.984,28.502,253.984,28.502C217.558,304.975,73.056,119.45,73.056,119.45        c125.97,105.458,180.329,133.146,180.329,133.146c-32.685-26.31-123.781-155.27-123.781-155.27        C202.5,169.83,347.396,270.93,347.396,270.93C388.947,159.206,308.203,59.211,308.203,59.211L308.203,59.211z" style="fill:none;stroke:#000000;stroke-width:20;stroke-linecap:round;stroke-linejoin:round;stroke-miterlimit:10;"/></g></g></g></g></g></g><g id="Layer_1"/></svg>