<?xml version="1.0" ?><!DOCTYPE svg  PUBLIC '-//W3C//DTD SVG 1.1//EN'  'http://www.w3.org/Graphics/SVG/1.1/DTD/svg11.dtd'><svg height="512px" style="enable-background:new 0 0 512 512;" version="1.1" viewBox="0 0 512 512" width="512px" xml:space="preserve" xmlns="http://www.w3.org/2000/svg" xmlns:xlink="http://www.w3.org/1999/xlink"><g id="comp_x5F_332-swift"><g><g id="_x32_3-swift_5_"><g><g><g><path d="M309.53,54.211c202.223,135.313,136.646,284.006,136.646,284.006s57.44,63.738,34.351,119.572        c0,0-23.83-39.004-63.388-39.004c-38.243,0-60.866,39.004-138.061,39.004c-171.691,0-253.077-141.076-253.077-141.076        c154.725,100.318,260.438,29.227,260.438,29.227C216.58,306.219,68.406,115.981,68.406,115.981        C197.577,224.118,253.319,252.51,253.319,252.51C219.802,225.531,126.391,93.294,126.391,93.294        C201.14,167.64,349.72,271.309,349.72,271.309C392.326,156.747,309.53,54.211,309.53,54.211L309.53,54.211z"/></g></g></g></g></g></g><g id="Layer_1"/></svg>