<?xml version="1.0" ?><!DOCTYPE svg  PUBLIC '-//W3C//DTD SVG 1.1//EN'  'http://www.w3.org/Graphics/SVG/1.1/DTD/svg11.dtd'><svg enable-background="new 0 0 24 24" height="24px" id="Layer_1" version="1.1" viewBox="0 0 24 24" width="24px" xml:space="preserve" xmlns="http://www.w3.org/2000/svg" xmlns:xlink="http://www.w3.org/1999/xlink"><g><g><g><g><g><path d="M19.499,18.97c-0.266,0-0.805-0.063-1.433-0.488c-0.474-0.323-0.932-0.84-1.375-1.341       c-0.673-0.761-1.317-1.466-1.835-1.303c-0.706,0.223-0.874,1.529-0.864,2.189c-0.001,0.065-0.016,0.326-0.192,0.514       c-0.132,0.132-0.309,0.184-0.643,0.194l-1.483,0.003c0.001,0.001-0.071,0.005-0.19,0.005c-0.751,0-3.384-0.188-5.727-2.601       c-3.019-3.107-5.689-9.246-5.716-9.308L0.11,6.199c0.005-0.003,0.01-0.007,0.014-0.01l0.155-0.077       c0.195-0.068,0.422-0.073,0.478-0.073l3.35-0.021c0.092,0.009,0.402,0.067,0.619,0.219C4.918,6.381,5.025,6.625,5.03,6.636       c0.011,0.027,0.558,1.397,1.292,2.642c1.316,2.251,2.015,3.015,2.583,2.714c0.353-0.19,0.646-1.327,0.499-3.433       c0.004-0.431-0.064-1.282-0.358-1.67C8.862,6.64,8.59,6.495,8.395,6.417l-0.652-0.26l0.529-0.46       c0.077-0.067,0.158-0.122,0.24-0.163C8.963,5.317,9.656,5.03,10.505,5.03h1.173c0.598,0,0.921,0.137,1.18,0.247       c0.118,0.049,0.221,0.093,0.331,0.12c0.916,0.216,0.883,1.068,0.823,2.614c-0.018,0.46-0.039,0.984-0.039,1.575       c0,0.133-0.004,0.275-0.008,0.42c-0.021,0.747-0.047,1.661,0.467,1.99c0.288,0.179,0.924-0.012,2.51-2.678       c0.756-1.276,1.31-2.728,1.315-2.742c0.015-0.035,0.137-0.3,0.321-0.415c0.122-0.075,0.268-0.09,0.37-0.09l0.134,0.007       L22.7,6.05c-0.002-0.001,0.11-0.012,0.26-0.012c0.512,0,0.739,0.123,0.797,0.16l0.117,0.076l0.051,0.131       c0.194,0.514-0.438,1.737-1.882,3.636c-0.31,0.406-0.582,0.757-0.82,1.062c-1.616,2.07-1.616,2.07,0.136,3.677       c1.526,1.398,2.146,2.268,2.397,2.751c0.207,0.334,0.258,0.637,0.139,0.874c-0.229,0.444-0.971,0.503-1.002,0.506l-3.291,0.054       C19.607,18.966,19.563,18.97,19.499,18.97z M15.021,14.956c0.882,0,1.545,0.749,2.313,1.616       c0.408,0.462,0.83,0.938,1.215,1.199c0.467,0.316,0.846,0.342,0.951,0.342v0.428l0.035-0.43l3.32-0.056       c0.055-0.005,0.127-0.022,0.19-0.043c-0.009-0.019-0.021-0.038-0.034-0.061c-0.194-0.371-0.722-1.157-2.23-2.541       c-2.096-1.921-2.12-2.419-0.233-4.835c0.238-0.303,0.508-0.65,0.814-1.053c1.136-1.495,1.532-2.268,1.67-2.627       c-0.112-0.003-0.25,0.006-0.271,0.008l-3.701,0.03l-0.041-0.002c-0.081,0.255-0.624,1.613-1.34,2.824       c-1.643,2.758-2.453,3.139-3.085,3.14c-0.225,0-0.433-0.06-0.619-0.176c-0.926-0.594-0.892-1.826-0.867-2.726       c0.005-0.149,0.009-0.283,0.009-0.409c0-0.604,0.021-1.139,0.039-1.609c0.061-1.539-0.001-1.708-0.164-1.746       c-0.155-0.038-0.304-0.095-0.466-0.164c-0.228-0.097-0.423-0.18-0.848-0.18h-1.173c-0.392,0-0.75,0.081-1.053,0.184       c0.1,0.088,0.195,0.19,0.28,0.306c0.52,0.686,0.531,1.919,0.528,2.159c0.165,2.354-0.155,3.782-0.95,4.211       c-0.203,0.108-0.417,0.163-0.638,0.163c-0.912,0-1.692-0.808-3.088-3.199c-0.78-1.321-1.34-2.736-1.346-2.75       C4.202,6.917,4.091,6.879,4.033,6.868L1.007,6.893c0.643,1.403,2.906,6.123,5.364,8.654c2.11,2.171,4.447,2.34,5.113,2.34       c0.09,0,0.146-0.004,0.16-0.005l1.492-0.002c0.01-0.613,0.153-2.447,1.462-2.858C14.733,14.978,14.876,14.956,15.021,14.956z"/></g></g></g></g></g></svg>