<?xml version="1.0" ?><svg enable-background="new -197.639 53.081 467.21 464.139" id="Layer_1" version="1.1" viewBox="-197.639 53.081 467.21 464.139" xml:space="preserve" xmlns="http://www.w3.org/2000/svg" xmlns:xlink="http://www.w3.org/1999/xlink"><g id="Layer_1_1_"/><g><path d="M269.303,281.517l-0.074-1.989c-0.229-6.246-0.95-12.348-1.647-18.25l-0.037-0.315c-0.642-5.421-1.555-11.072-2.961-18.318   c-0.367-1.896-0.687-3.816-1.025-5.851c-0.664-3.991-1.351-8.118-2.457-12.326c-1.38-5.252-3.062-10.403-4.688-15.385l-0.729-2.236   c-0.154-0.474-0.344-0.936-0.566-1.382c-0.736-1.473-1.413-2.881-2.146-4.961c-0.504-2.252-1.65-3.972-2.773-5.218   c-0.147-2.427-1.176-4.727-2.903-6.458c-0.521-2.272-1.485-4.237-2.886-5.876c-2.071-2.863-3.434-6.088-5.241-10.609   c-0.164-0.409-0.354-0.806-0.569-1.189c-3.033-5.39-6.346-10.61-10.128-15.958c-3.771-5.333-7.209-10.135-11.096-14.903   c-1.246-1.529-2.482-3.075-3.725-4.63c-2.461-3.078-5.006-6.261-7.729-9.437c-0.644-0.75-1.392-1.396-2.212-1.92   c-3.521-3.489-7.174-6.708-10.722-9.833l-2.059-1.816c-1.066-0.944-2.126-1.896-3.186-2.849c-3.685-3.313-7.496-6.739-11.673-9.896   c-5.125-3.873-10.383-7.272-16.231-10.998c-5.436-3.462-11.146-6.772-16.974-9.839c-5.297-2.789-11.301-5.95-17.656-8.634   c-6.688-2.825-12.714-5.095-18.422-6.94c-5.944-1.923-11.911-3.402-19.04-5.031c-6.264-1.432-12.581-2.299-18.689-3.137   l-0.773-0.106c-5.58-0.734-12.523-1.649-19.33-2.015c-5.018-0.271-9.844-0.067-14.511,0.128c-1.655,0.069-3.307,0.139-4.958,0.185   l-2.924,0.076c-5.366,0.135-10.915,0.273-16.547,0.918C4.344,55.168-1.778,56.184-9.25,57.717c-1.77,0.363-3.55,0.689-5.333,1.016   c-4.478,0.822-9.107,1.671-13.811,3.083c-4.58,1.375-8.818,3.192-12.917,4.95c-1.826,0.783-3.552,1.522-5.292,2.219   c-0.075,0.03-0.15,0.061-0.224,0.093c-6.497,2.784-12.191,5.443-17.408,8.127c-0.962,0.496-1.925,0.986-2.887,1.477   c-4.642,2.368-9.442,4.816-14.092,7.674c-4.889,3.005-9.412,6.32-13.786,9.525l-2.066,1.512   c-5.596,4.081-10.557,7.989-15.167,11.948c-4.478,3.847-9.085,8.155-14.086,13.171c-1.344,1.348-2.725,2.671-4.112,4.001   c-3.139,3.011-6.385,6.124-9.458,9.689c-0.06,0.069-0.118,0.139-0.175,0.209c-3.966,4.862-7.766,9.844-11.294,14.808   c-3.309,4.655-6.231,9.437-9.056,14.061l-0.997,1.63c-3.604,5.885-6.566,10.885-9.307,16.159   c-2.308,4.442-4.216,8.941-6.061,13.292c-0.527,1.242-1.053,2.482-1.587,3.718c-0.632,1.462-1.282,2.917-1.932,4.374   c-1.83,4.098-3.722,8.335-5.293,12.834c-2.091,5.983-3.955,11.982-5.539,17.831c-1.271,4.688-2.146,9.369-2.994,13.896   c-0.272,1.454-0.544,2.908-0.83,4.361c-0.993,5.062-1.6,10.088-2.188,14.949c-0.138,1.141-0.276,2.285-0.419,3.431   c-0.104,0.834-0.103,1.679,0.004,2.513l0.275,2.148c0.727,5.694,1.478,11.582,2.444,17.422c0.396,2.393,0.725,4.792,1.073,7.332   c0.546,3.989,1.112,8.115,1.965,12.277c0.843,4.105,1.975,8.005,3.07,11.776c0.745,2.566,1.449,4.99,2.046,7.411   c0.375,1.518,0.743,3.038,1.11,4.558c1.158,4.785,2.355,9.734,3.786,14.667c1.94,6.691,4.114,13.317,5.984,18.918   c0.698,2.088,1.363,4.193,2.03,6.304c1.291,4.085,2.625,8.309,4.225,12.535c0.018,0.047,0.036,0.093,0.054,0.139   c-0.004,0.218-0.015,0.482-0.023,0.7c-0.001,0.039-0.003,0.078-0.004,0.118c-1.363,4.799-2.758,9.874-4.254,15.469   c-0.618,2.312-1.438,4.669-2.306,7.164c-1.03,2.961-2.095,6.022-2.926,9.309c-0.823,3.256-1.333,6.416-1.826,9.473   c-0.425,2.636-0.827,5.126-1.395,7.458c-0.612,2.514-1.256,5.028-1.902,7.555c-0.755,2.952-1.536,6.005-2.275,9.086   c-0.629,2.622-1.327,5.241-2.066,8.016c-0.737,2.768-1.5,5.63-2.207,8.559c-0.014,0.059-0.028,0.117-0.041,0.177   c-1.027,4.619-1.837,8.74-2.621,12.727c-0.795,4.045-1.547,7.866-2.52,12.247c-0.159,0.712-0.238,1.439-0.238,2.169   c0,1.016,0.007,2.345,0.015,3.675c0.007,1.289,0.015,2.578,0.015,3.563c0,2.845,1.211,5.555,3.331,7.451   c1.843,1.649,4.221,2.549,6.668,2.549c0.368,0,0.736-0.021,1.105-0.062c5.629-0.626,10.795-2.269,15.542-3.952   c1.905-0.676,3.785-1.399,5.602-2.099c2.241-0.862,4.367-1.68,6.534-2.417c7.257-1.646,13.309-3.729,19.708-5.93   c1.719-0.592,3.483-1.198,5.328-1.816c5.052-1.134,9.535-2.817,13.876-4.447c2.176-0.817,4.231-1.589,6.262-2.253   c6.103-1.996,12.166-3.409,18.536-4.319c0.593-0.085,1.178-0.223,1.747-0.413c2.084-0.694,4.046-1.49,5.942-2.26   c1.878-0.762,3.699-1.501,5.334-2.01c3.606,1.574,7.227,2.949,10.745,4.286c1.949,0.74,3.896,1.479,5.824,2.248   c5.554,2.215,11.174,4.099,16.61,5.92l2.03,0.682c6.018,2.023,12.225,3.893,18.979,5.716c5.66,1.526,12.382,3.273,19.322,4.66   l0.262,0.052c6.257,1.25,12.728,2.543,19.375,3.388c3.439,0.436,7.013,0.804,10.788,1.108c1.012,0.707,2.167,1.234,3.426,1.531   c2.475,0.586,4.992,0.194,7.103-0.963c1.736-0.155,3.345-0.754,4.713-1.684c2.753,0.009,5.526-0.017,8.305-0.12   c6.659-0.247,13.881-0.627,21.563-1.725c0.153-0.021,0.306-0.047,0.458-0.076c4.667-0.89,9.741-1.965,15.969-3.384   c3.688-0.842,7.166-1.93,10.529-2.981c1.834-0.573,3.566-1.115,5.301-1.609c1.631-0.465,3.297-0.891,5.061-1.343   c3.541-0.907,7.202-1.845,10.939-3.188c3.661-1.315,6.979-2.968,10.188-4.565c1.735-0.863,3.374-1.68,5.017-2.418   c1.651-0.743,3.308-1.451,4.956-2.156c3.314-1.417,6.742-2.883,10.124-4.615l1.192-0.61c4.467-2.285,9.086-4.648,13.566-7.386   c3.897-2.38,7.372-5.05,10.731-7.632c1.008-0.774,2.017-1.551,3.037-2.316c4.891-3.675,9.18-7.253,13.112-10.939   c0.079-0.073,0.157-0.148,0.233-0.225c1.057-1.058,2.597-2.253,4.227-3.519c2.045-1.588,4.159-3.23,6.103-5.173   c0.466-0.466,0.881-0.972,1.246-1.521c0.159-0.215,0.916-0.814,1.418-1.212c1.589-1.258,3.766-2.981,5.642-5.795   c0.041-0.062,0.082-0.124,0.122-0.187c0.155-0.123,0.34-0.265,0.493-0.383c0.846-0.651,2.003-1.543,3.22-2.759   c0.139-0.139,0.272-0.281,0.402-0.427c4.162-4.683,8.166-9.538,11.9-14.432c2.674-3.503,4.796-7.098,6.849-10.573   c1.089-1.842,2.116-3.582,3.185-5.24c0.908-1.409,1.841-2.803,2.771-4.195c2.453-3.671,4.99-7.467,7.222-11.648l1.083-2.022   c2.521-4.698,5.127-9.557,7.363-14.744c1.85-4.286,3.22-8.607,4.545-12.786c0.523-1.648,1.047-3.301,1.601-4.946   c1.733-5.151,3.729-11.309,5.38-17.916c0.009-0.035,0.018-0.071,0.026-0.106c1.305-5.476,2.775-11.863,3.706-18.394   c0.845-5.918,1.695-12.233,2.022-18.661C269.72,292.521,269.508,286.927,269.303,281.517z M249.454,297.243   c-0.284,5.589-1.068,11.39-1.847,16.852c-0.728,5.1-1.865,10.298-3.35,16.526c-1.479,5.907-3.316,11.571-4.919,16.333   c-0.591,1.756-1.151,3.521-1.709,5.281c-1.23,3.879-2.393,7.543-3.846,10.911c-1.899,4.406-4.194,8.683-6.623,13.211l-1.103,2.058   c-1.767,3.311-3.924,6.538-6.207,9.954c-0.992,1.485-1.983,2.97-2.952,4.473c-1.281,1.987-2.458,3.979-3.596,5.905   c-1.837,3.111-3.572,6.05-5.527,8.61c-3.358,4.401-6.956,8.772-10.698,12.995c-0.293,0.267-0.685,0.568-1.127,0.909   c-1.44,1.109-3.541,2.727-5.147,5.426c-0.264,0.268-0.888,0.762-1.321,1.104c-1.384,1.096-3.214,2.544-4.902,4.758   c-1.014,0.932-2.332,1.956-3.717,3.031c-2,1.554-4.067,3.158-5.975,5.047c-3.372,3.151-7.084,6.241-11.344,9.441   c-1.077,0.81-2.146,1.63-3.211,2.449c-3.078,2.365-5.985,4.6-8.971,6.423c-3.837,2.344-7.923,4.435-12.249,6.647l-1.203,0.615   c-2.765,1.416-5.729,2.685-8.869,4.027c-1.763,0.754-3.534,1.512-5.3,2.307c-1.998,0.898-3.891,1.841-5.722,2.753   c-2.817,1.402-5.479,2.728-8.04,3.647c-2.85,1.024-5.903,1.807-9.137,2.636c-1.813,0.464-3.688,0.944-5.575,1.481   c-1.981,0.564-3.919,1.171-5.794,1.757c-3.131,0.979-6.087,1.904-9.005,2.569c-5.884,1.342-10.67,2.357-15.035,3.193   c-6.69,0.942-13.204,1.28-19.252,1.505c-4.282,0.159-8.599,0.109-13.17,0.058c-1.819-0.021-3.649-0.042-5.495-0.051   c-0.562-0.022-1.021-0.012-1.344-0.007l-0.171,0.004c-1.557,0-3.031,0.355-4.345,0.99c-2.258-0.214-4.435-0.454-6.549-0.722   c-5.942-0.755-11.786-1.923-17.974-3.159l-0.262-0.053c-6.368-1.271-12.689-2.916-18.03-4.356   c-6.358-1.716-12.185-3.471-17.815-5.363l-2.047-0.688c-5.412-1.813-10.524-3.527-15.559-5.535   c-2.029-0.809-4.078-1.588-6.129-2.367c-2.2-0.836-4.333-1.646-6.41-2.481c-1.871-2.325-4.747-3.785-7.881-3.785   c-6.169,0-11.61,2.207-16.41,4.155c-1.387,0.563-2.711,1.1-3.963,1.548c-7.182,1.079-14.049,2.707-20.96,4.967   c-2.44,0.799-4.797,1.684-7.075,2.539c-3.996,1.501-7.771,2.918-11.605,3.739c-0.361,0.077-0.717,0.175-1.067,0.292   c-2.089,0.696-4.076,1.379-6.007,2.044c-6.266,2.155-11.677,4.017-18.069,5.438c-0.335,0.074-0.667,0.166-0.994,0.275   c-2.761,0.92-5.35,1.917-7.854,2.88c-1.232,0.475-2.417,0.93-3.58,1.361c0.298-1.488,0.584-2.941,0.867-4.378   c0.79-4.018,1.537-7.814,2.5-12.158c0.646-2.672,1.37-5.388,2.069-8.016c0.737-2.769,1.5-5.632,2.187-8.494   c0.705-2.938,1.467-5.917,2.204-8.799c0.665-2.601,1.327-5.188,1.957-7.775c0.755-3.101,1.24-6.104,1.708-9.008   c0.444-2.751,0.863-5.351,1.471-7.755c0.617-2.441,1.496-4.966,2.425-7.639c0.949-2.729,1.931-5.549,2.738-8.571   c1.594-5.964,3.071-11.319,4.514-16.371c0.255-0.893,0.385-1.817,0.385-2.746c0-0.293,0.013-0.587,0.024-0.881   c0.077-2.036,0.203-5.376-1.444-9.023c-1.345-3.594-2.503-7.259-3.727-11.131c-0.7-2.214-1.398-4.423-2.13-6.614   c-1.807-5.411-3.903-11.799-5.745-18.151c-1.306-4.502-2.398-9.019-3.556-13.801c-0.375-1.55-0.75-3.1-1.132-4.646   c-0.694-2.814-1.488-5.55-2.256-8.194c-1.03-3.549-2.004-6.901-2.685-10.221c-0.72-3.512-1.217-7.136-1.742-10.972   c-0.352-2.564-0.715-5.215-1.156-7.882c-0.905-5.475-1.601-10.922-2.337-16.69l-0.116-0.909c0.092-0.752,0.183-1.503,0.274-2.253   c0.569-4.709,1.106-9.157,1.957-13.495c0.297-1.51,0.58-3.023,0.863-4.535c0.811-4.333,1.577-8.425,2.639-12.345   c1.46-5.39,3.181-10.929,5.115-16.464c1.295-3.708,2.937-7.385,4.675-11.278c0.682-1.528,1.364-3.056,2.027-4.59   c0.552-1.278,1.097-2.562,1.642-3.847c1.773-4.181,3.448-8.13,5.396-11.878c2.472-4.756,5.231-9.411,8.615-14.937l1.007-1.647   c2.769-4.532,5.385-8.813,8.291-12.901c3.247-4.567,6.746-9.157,10.402-13.644c2.433-2.81,5.172-5.438,8.07-8.217   c1.453-1.394,2.955-2.834,4.43-4.314c4.634-4.648,8.872-8.613,12.954-12.12c4.203-3.61,8.757-7.195,13.922-10.961l2.103-1.539   c4.238-3.106,8.24-6.04,12.435-8.618c3.973-2.441,8.216-4.605,12.708-6.897c0.982-0.501,1.966-1.003,2.95-1.509   c4.768-2.453,10.01-4.901,16.025-7.481c1.926-0.773,3.808-1.58,5.628-2.36c3.751-1.608,7.295-3.127,10.789-4.176   c3.647-1.095,7.544-1.81,11.67-2.567c1.919-0.352,3.836-0.705,5.741-1.095c6.881-1.412,12.449-2.339,17.521-2.92   c4.749-0.543,9.619-0.665,14.775-0.794l2.986-0.078c1.742-0.049,3.486-0.122,5.233-0.195c4.39-0.184,8.54-0.358,12.599-0.14   c5.591,0.301,11.131,0.996,17.738,1.866l0.721,0.099c5.939,0.815,11.55,1.584,16.952,2.819c6.613,1.512,12.094,2.866,17.343,4.564   c5.151,1.666,10.645,3.737,16.793,6.334c5.572,2.354,11.177,5.305,16.123,7.908c5.342,2.812,10.572,5.843,15.544,9.01   c5.479,3.49,10.383,6.658,14.918,10.085c3.498,2.644,6.831,5.64,10.36,8.813c1.098,0.986,2.194,1.973,3.3,2.951l2.094,1.848   c3.974,3.501,7.727,6.808,11.188,10.368c0.362,0.373,0.751,0.714,1.16,1.022c2.019,2.41,3.992,4.879,5.913,7.282   c1.282,1.604,2.559,3.201,3.845,4.778c3.486,4.277,6.713,8.787,10.269,13.814c3.249,4.594,6.102,9.067,8.708,13.655   c2.034,5.061,3.924,9.391,6.952,13.712c0.226,2.278,1.228,4.421,2.854,6.059c0.013,0.097,0.023,0.19,0.032,0.277   c0.073,2.548,1.118,4.976,2.925,6.783c0.271,0.271,0.538,0.517,0.79,0.739c0.878,2.381,1.724,4.207,2.488,5.761l0.508,1.559   c1.607,4.924,3.126,9.575,4.357,14.263c0.872,3.317,1.454,6.818,2.071,10.524c0.345,2.073,0.701,4.217,1.12,6.375   c1.309,6.747,2.152,11.946,2.733,16.857l0.036,0.313c0.681,5.761,1.323,11.202,1.523,16.637l0.075,2.014   C249.515,287.478,249.7,292.393,249.454,297.243z"/><path d="M231.351,256.389c-0.804-5.403-2.01-11.148-3.795-18.082l-0.311-1.209c-1.386-5.396-2.818-10.976-4.875-16.525   c-2.039-5.501-4.438-11.046-7.333-16.952c-2.515-5.128-5.456-10.396-8.991-16.103c-3.073-4.959-6.396-10.226-10.27-15.305   c-4.307-5.647-8.046-10.153-11.769-14.18c-3.961-4.283-8.384-8.622-13.146-12.894c-4.542-4.076-9.395-7.745-14.381-11.457   c-3.958-2.946-8.081-5.423-12.069-7.819c-0.524-0.315-1.05-0.631-1.575-0.948c-0.563-0.952-1.356-2.177-2.537-3.357   c-0.676-0.676-1.444-1.251-2.283-1.708c-3.647-1.989-7.198-3.667-10.633-5.291c-2.01-0.951-3.909-1.848-5.769-2.779   c-1.886-0.944-3.745-1.926-5.713-2.966c-3.368-1.779-6.851-3.619-10.594-5.321c-0.169-0.077-0.34-0.149-0.514-0.216   c-4.53-1.762-9.07-3.008-13.46-4.212c-2.012-0.552-3.912-1.073-5.792-1.637c-5.893-1.766-12.571-3.767-19.476-5.193   c-6.356-1.311-13.095-2.345-20.029-3.075c-0.135-0.014-0.269-0.025-0.404-0.034c-6.076-0.391-12.434-0.326-20.01,0.208   c-7.262,0.515-13.709,1.327-19.706,2.482c-7.386,1.422-13.481,2.889-19.182,4.618c-5.416,1.643-12.156,3.686-18.58,6.288   c-4.978,2.016-11.505,4.736-17.847,7.908c-0.062,0.031-0.124,0.063-0.185,0.095c-3.933,2.07-7.361,4.504-10.676,6.858   c-1.684,1.196-3.273,2.325-4.865,3.361c-1.584,1.031-3.25,2.024-5.014,3.076c-3.492,2.081-7.103,4.234-10.599,6.989   c-4.813,3.794-9.542,7.885-14.059,12.157c-3.409,3.225-6.317,6.66-9.129,9.983c-1.09,1.287-2.178,2.574-3.289,3.835   c-0.704,0.799-1.412,1.595-2.121,2.391c-3.305,3.714-6.723,7.554-9.835,11.829c-3.389,4.654-6.715,9.759-10.165,15.604   c-3.194,5.409-6.279,10.735-8.904,16.42c-2.009,4.349-3.378,8.694-4.703,12.896c-0.5,1.587-1,3.174-1.533,4.745   c-0.414,1.217-0.84,2.431-1.266,3.645c-1.586,4.518-3.227,9.189-4.343,14.243c-1.59,7.204-2.592,13.1-3.153,18.555   c-0.672,6.521-0.577,13.022-0.49,18.765c0.001,0.929,0.021,1.91,0.043,2.919c0.06,2.727,0.127,5.817-0.327,7.633   c-0.144,0.578-0.237,1.168-0.276,1.762c-0.428,6.427-0.339,12.795,0.271,19.472l0.1,1.092c0.529,5.815,1.076,11.829,2.413,17.959   c1.105,5.073,2.642,9.907,4.128,14.581c0.375,1.179,0.75,2.357,1.117,3.541c1.728,5.556,3.633,11.529,5.861,17.563   c1.322,3.581,2.748,7.049,4.127,10.402c0.876,2.131,1.753,4.262,2.6,6.415c0.287,0.731,0.66,1.426,1.109,2.07   c0.451,0.645,0.966,1.227,1.531,1.739c-1.143,3.854-2.222,7.782-3.221,11.733c-0.819,3.239-1.486,6.452-2.13,9.559   c-0.524,2.528-1.02,4.917-1.585,7.286c-0.834,3.493-1.833,6.963-2.891,10.638c-0.528,1.834-1.057,3.671-1.567,5.519   c-1.431,5.182-3.058,10.303-4.838,15.228c-0.585,0.921-1.027,1.951-1.289,3.061c-1.065,4.514,1.112,9.168,5.26,11.242   c3.756,1.879,6.778,1.672,8.98,0.853c3.229-0.291,6.042-0.852,8.792-1.399c1.441-0.287,2.932-0.584,4.504-0.846   c0.218-0.036,0.434-0.08,0.648-0.131c3.842-0.905,7.628-1.868,11.289-2.8c1.758-0.447,3.508-0.893,5.25-1.328   c2.18-0.544,4.355-1.031,6.659-1.547c3.268-0.731,6.646-1.488,10.031-2.42c3.513-0.967,6.845-2.134,10.067-3.262   c1.121-0.393,2.21-0.774,3.285-1.141c0.362,0.294,0.748,0.564,1.156,0.81c5.845,3.507,10.853,6.274,15.761,8.711l0.438,0.218   c5.108,2.538,10.391,5.161,15.946,7.389c5.444,2.182,11.167,4.214,17.012,6.041c5.634,1.762,11.303,3.071,16.785,4.337l0.673,0.155   c1.437,0.332,2.872,0.681,4.309,1.028c4.256,1.032,8.657,2.099,13.28,2.817c4.842,0.754,9.655,1.142,14.309,1.517   c0.533,0.044,1.067,0.087,1.601,0.13c0.764,0.225,1.56,0.359,2.372,0.395c0.08,0.004,0.16,0.006,0.239,0.008   c1.946,0.039,3.802,0.059,5.587,0.059c5.305,0,9.969-0.173,14.382-0.528c5.332-0.429,10.409-1.406,15.319-2.352   c1.458-0.28,2.916-0.562,4.375-0.826l0.707-0.128c6.118-1.106,12.443-2.25,18.778-4.057c1.364-0.39,2.735-0.767,4.108-1.145   c4.892-1.345,9.95-2.736,14.99-4.734c4.609-1.827,8.748-4.125,12.751-6.347c1.749-0.971,3.402-1.889,5.064-2.751   c5.914-3.072,11.705-6.471,17.213-10.103c6.641-4.379,11.629-8.003,16.176-11.752c4.917-4.056,9.332-8.059,13.448-12.195   c1.021-0.388,2.322-1.018,3.623-2.089c2.393-1.729,3.947-3.637,5.105-5.061c0.479-0.589,1.076-1.321,1.32-1.484   c0.734-0.489,1.399-1.073,1.98-1.737c3.638-4.159,6.708-8.483,9.677-12.666c0.744-1.048,1.485-2.092,2.234-3.131   c3.663-5.086,7.522-10.608,10.926-16.526l0.789-1.37c2.953-5.123,6.007-10.421,8.553-16.18c2.022-4.576,3.403-9.192,4.739-13.657   c0.515-1.72,1.03-3.445,1.584-5.163c0.423-1.309,0.86-2.62,1.3-3.936c1.587-4.757,3.228-9.676,4.396-15.012   c0.153-0.702,0.23-1.418,0.23-2.137c0-2.852,0.286-4.928,0.957-6.941c0.163-0.487,0.288-0.987,0.374-1.494   c0.967-5.719,1.64-11.71,2.056-18.313c0.448-7.097,0.55-12.961,0.318-18.459C232.615,268.976,232.296,262.746,231.351,256.389z    M212.583,292.011c-0.354,5.634-0.912,10.729-1.7,15.549c-1.076,3.491-1.628,7.124-1.714,11.288   c-0.931,3.961-2.235,7.87-3.61,11.991c-0.459,1.377-0.916,2.748-1.359,4.118c-0.599,1.855-1.157,3.72-1.713,5.578   c-1.212,4.051-2.356,7.877-3.871,11.303c-2.113,4.782-4.772,9.395-7.587,14.277l-0.799,1.387   c-2.955,5.14-6.465,10.154-9.814,14.806c-0.775,1.074-1.545,2.158-2.316,3.246c-2.585,3.64-5.037,7.094-7.731,10.272   c-2.025,1.59-3.398,3.276-4.447,4.564c-0.379,0.465-0.83,1.019-1.123,1.312c-1.286,0.436-3.216,1.28-5.017,3.08   c-0.032,0.033-0.064,0.065-0.097,0.099c-3.977,4.088-8.281,8.031-13.156,12.053c-3.976,3.278-8.436,6.512-14.461,10.484   c-4.932,3.252-10.12,6.297-15.421,9.05c-1.908,0.99-3.762,2.02-5.554,3.015c-3.604,2.001-7.008,3.89-10.415,5.24   c-4.025,1.597-8.348,2.785-12.923,4.043c-1.435,0.395-2.868,0.789-4.293,1.196c-5.38,1.534-10.951,2.542-16.85,3.608l-0.712,0.129   c-1.532,0.277-3.062,0.572-4.592,0.866c-4.58,0.883-8.906,1.716-13.141,2.056c-4.718,0.379-9.836,0.521-15.983,0.442   c-0.43-0.096-0.869-0.163-1.314-0.202c-1.226-0.104-2.451-0.203-3.675-0.302c-4.488-0.362-8.727-0.703-12.84-1.344   c-3.799-0.591-7.609-1.515-11.643-2.492c-1.506-0.365-3.011-0.73-4.518-1.078l-0.676-0.156c-5.353-1.236-10.408-2.403-15.316-3.938   c-5.35-1.673-10.578-3.529-15.539-5.517c-4.813-1.931-9.514-4.265-14.491-6.737l-0.44-0.219c-2.565-1.273-5.179-2.658-7.971-4.227   c-0.424-0.724-0.944-1.401-1.556-2.013c-4.288-4.288-9.417-5.268-12.481-5.853c-0.104-0.02-0.215-0.041-0.329-0.063   c-1.362-0.518-2.867-0.797-4.459-0.797c-2.765,0-5.3,1.131-7.126,2.984c-0.6,0.209-1.195,0.417-1.784,0.623   c-3.04,1.064-5.912,2.07-8.766,2.856c-2.917,0.803-5.916,1.475-9.091,2.186c-2.319,0.52-4.717,1.056-7.135,1.659   c-1.772,0.443-3.55,0.896-5.336,1.351c-3.265,0.83-6.63,1.687-9.983,2.487c0.289-0.994,0.571-1.991,0.847-2.989   c0.491-1.777,1-3.545,1.508-5.309c1.074-3.73,2.184-7.587,3.125-11.528c0.635-2.657,1.184-5.305,1.715-7.865   c0.629-3.033,1.224-5.897,1.937-8.719c0.931-3.681,1.935-7.338,2.998-10.924c0.767-0.587,1.454-1.289,2.033-2.093   c1.88-2.607,2.391-5.959,1.375-9.009c-2.018-6.054-5.525-9.426-8.848-11.304c-0.156-0.38-0.313-0.76-0.469-1.14   c-1.371-3.334-2.667-6.483-3.862-9.723c-2.069-5.603-3.878-11.276-5.524-16.572c-0.38-1.225-0.769-2.444-1.156-3.664   c-1.409-4.432-2.74-8.618-3.647-12.78c-1.072-4.919-1.541-10.064-2.036-15.512l-0.101-1.101c-0.489-5.352-0.581-10.45-0.279-15.561   c0.861-4.122,0.767-8.418,0.691-11.921c-0.02-0.887-0.039-1.748-0.039-2.562c0-0.05,0-0.101-0.001-0.151   c-0.079-5.208-0.168-11.11,0.385-16.487c0.481-4.677,1.368-9.854,2.789-16.292c0.856-3.876,2.229-7.788,3.684-11.929   c0.449-1.278,0.897-2.555,1.333-3.836c0.581-1.711,1.126-3.439,1.671-5.167c1.188-3.77,2.31-7.331,3.784-10.521   c2.235-4.84,5.045-9.686,7.971-14.639c3.122-5.29,6.101-9.868,9.109-13.999c2.536-3.483,5.485-6.797,8.608-10.305   c0.73-0.821,1.461-1.642,2.188-2.466c1.199-1.36,2.374-2.747,3.548-4.135c2.573-3.041,5.004-5.912,7.607-8.375   c4.083-3.862,8.355-7.557,12.697-10.98c2.473-1.949,5.38-3.682,8.458-5.516c1.853-1.104,3.769-2.247,5.682-3.492   c1.933-1.257,3.766-2.559,5.538-3.818c2.878-2.044,5.599-3.976,8.323-5.42c5.688-2.838,11.701-5.342,16.312-7.209   c5.174-2.096,10.479-3.747,16.875-5.686c5.02-1.522,10.472-2.831,17.16-4.118c5.208-1.003,10.879-1.714,17.334-2.171   c6.566-0.463,12.011-0.53,17.114-0.212c6.212,0.66,12.227,1.585,17.877,2.75c6.044,1.248,12.276,3.116,17.775,4.764   c2.105,0.631,4.209,1.208,6.243,1.766c3.981,1.093,7.749,2.126,11.244,3.465c3.111,1.426,6.106,3.008,9.272,4.681   c1.977,1.044,4.02,2.124,6.102,3.166c2.062,1.032,4.152,2.02,6.175,2.976c2.467,1.166,4.999,2.363,7.478,3.641   c0.553,0.913,1.311,2.034,2.394,3.118c0.556,0.556,1.176,1.044,1.846,1.455c1.183,0.725,2.371,1.439,3.559,2.153   c3.734,2.244,7.263,4.363,10.427,6.719c4.775,3.555,9.048,6.783,12.966,10.299c4.302,3.86,8.278,7.758,11.817,11.586   c3.284,3.552,6.636,7.597,10.55,12.729c3.331,4.369,6.357,9.169,9.172,13.711c3.186,5.141,5.813,9.843,8.035,14.374   c2.597,5.295,4.735,10.234,6.538,15.097c1.695,4.577,2.939,9.421,4.257,14.55l0.313,1.22c1.607,6.244,2.682,11.341,3.381,16.038   c0.802,5.393,1.088,11.021,1.312,16.323C213.081,280.433,212.987,285.629,212.583,292.011z"/><path d="M140.048,328.165c-3.195-1.826-6.398-3.445-9.495-5.011c-1.701-0.859-3.4-1.718-5.083-2.605   c-1.834-0.967-3.651-1.991-5.575-3.076c-2.817-1.589-5.73-3.23-8.823-4.753c-3.054-1.503-6.167-2.903-9.179-4.258   c-1.881-0.846-3.772-1.696-5.661-2.578c-2.767-1.289-5.965-1.249-8.696,0.116c-0.477,0.221-2.121,0.412-3.208,0.538   c-2.793,0.325-6.269,0.729-9.84,2.515c-4.257,2.128-6.397,6.941-5.2,11.486c-1.481,1.991-6.976,5.058-9.415,6.419   c-0.692,0.387-1.358,0.758-1.984,1.116c-0.747,0.427-1.437,0.948-2.05,1.552c-5.242-2.564-9.955-5.361-14.344-8.51   c-4.047-2.903-7.915-6.117-12.011-9.521c-1.323-1.098-2.645-2.197-3.975-3.286c-1.325-1.155-2.663-2.273-3.994-3.384   c-2.63-2.193-5.115-4.266-7.24-6.472c-2.752-2.857-5.41-6.288-8.223-9.92l-1.187-1.53c-2.464-3.287-5.332-7.179-7.967-11.19   c-1.191-1.813-2.261-3.807-3.394-5.919c-0.583-1.087-1.176-2.193-1.808-3.316c0.474-2.021,1.776-3.955,4.923-6.413   c1.382-1.08,2.901-2.146,4.509-3.276c4.135-2.904,8.822-6.195,12.477-10.764c2.401-3.001,2.87-7.114,1.205-10.579   c-0.385-0.801-0.869-1.535-1.432-2.189c-0.991-3.747-2.788-6.795-4.223-9.227c-0.536-0.909-1.042-1.768-1.405-2.493   c-0.115-0.229-0.238-0.454-0.37-0.673c-2.29-3.815-3.519-8.634-4.506-13.272c-0.332-1.56-0.642-3.127-0.952-4.689   c-0.843-4.25-1.714-8.646-3.007-12.977c-2.066-6.918-4.819-14.097-10.926-19.733c-0.559-0.516-1.175-0.967-1.836-1.343   c-2.486-1.415-5.461-1.747-8.16-0.913c-0.069,0.021-0.14,0.044-0.21,0.067c-5.563-0.831-11.343-1.423-16.968-1.139   c-10.636,0.54-18.765,4.575-24.16,11.993c-1.181,1.624-1.845,3.564-1.908,5.567c-0.459,0.673-0.929,1.354-1.41,2.051   c-2.034,2.949-4.137,5.998-6.025,9.328c-3.399,5.999-5.937,11.411-7.756,16.545c-1.936,5.462-3.086,11.666-3.516,18.964   c-0.012,0.196-0.018,0.392-0.018,0.588c0,6.842,2.096,12.639,4.062,17.537c1.249,3.112,2.646,6.153,3.996,9.095   c0.618,1.347,1.241,2.703,1.854,4.078l0.763,2.044c2.372,6.376,4.815,12.945,8.844,19.968c0.085,0.484,0.206,0.966,0.364,1.439   c0.217,0.651,0.416,1.356,0.625,2.085c0.856,2.989,1.922,6.708,4.265,10.224c3.15,4.728,6.621,9.651,10.919,15.495   c1.021,1.387,2.022,2.784,3.023,4.179c2.643,3.684,5.376,7.493,8.445,11.15c3.069,3.658,6.359,6.87,9.542,9.976   c1.311,1.279,2.623,2.559,3.908,3.863c4.575,4.644,9.185,8.914,14.086,13.05c1.319,1.2,2.623,2.493,4.001,3.858   c2.635,2.612,5.36,5.313,8.593,7.767c3.233,2.453,6.519,4.322,9.696,6.13c1.763,1.002,3.429,1.949,4.97,2.935   c4.303,2.751,9.34,5.926,14.663,8.809l2.52,1.372c4.032,2.2,8.202,4.475,12.585,6.503c5.429,2.511,10.343,4.758,15.51,6.824   c0.182,0.072,0.365,0.14,0.551,0.201c3.749,1.25,10.313,3.014,17.495,3.014c2.1,0,4.252-0.15,6.401-0.509   c0.915-0.152,1.805-0.432,2.642-0.829c0.292-0.091,0.949-0.238,1.396-0.339c1.119-0.253,2.426-0.547,3.809-1.042   c6.279-0.771,12.388-2,18.18-3.659c8.073-2.314,14.237-4.863,19.397-8.021c5.984-3.662,11.146-8.821,15.779-15.772   c1.283-1.926,1.859-4.237,1.629-6.541c-0.171-1.713,0.08-4.159,0.346-6.748c0.274-2.669,0.585-5.695,0.524-8.826   c-0.156-8.11-2.724-14.63-7.642-19.438C142.887,330.347,141.613,329.06,140.048,328.165z M130.983,358.095   c-0.226,2.196-0.456,4.44-0.499,6.739c-2.457,3.225-4.979,5.58-7.799,7.305c-3.579,2.19-8.178,4.052-14.469,5.855   c-5.148,1.476-10.632,2.543-16.298,3.173c-1.103,0.122-2.178,0.428-3.18,0.903c-0.291,0.09-0.949,0.238-1.396,0.339   c-1.15,0.26-2.498,0.563-3.923,1.084c-3.618,0.37-8.375-0.278-13.023-1.794c-4.616-1.856-9.192-3.95-14.255-6.292   c-3.781-1.75-7.483-3.771-11.403-5.908l-2.574-1.402c-4.26-2.307-8.445-4.896-13.416-8.072c-1.976-1.264-3.947-2.385-5.854-3.469   c-2.733-1.555-5.314-3.023-7.494-4.677c-2.18-1.654-4.329-3.784-6.603-6.039c-1.518-1.504-3.088-3.061-4.788-4.599   c-0.087-0.079-0.176-0.156-0.267-0.232c-4.477-3.771-8.686-7.667-12.867-11.91c-1.377-1.398-2.782-2.77-4.186-4.14   c-2.962-2.891-5.76-5.621-8.188-8.516c-2.583-3.078-4.979-6.419-7.517-9.956c-1.046-1.458-2.094-2.918-3.162-4.37   c-4.112-5.589-7.413-10.271-10.389-14.737c-0.555-0.833-1.069-2.516-1.53-4.114c0.028-1.173-0.147-2.348-0.521-3.468   c-0.252-1.025-0.666-2.009-1.231-2.914c-3.969-6.35-6.167-12.258-8.712-19.1l-0.884-2.37c-0.07-0.186-0.145-0.37-0.226-0.552   c-0.686-1.543-1.384-3.064-2.077-4.573c-1.308-2.849-2.543-5.54-3.611-8.199c-1.396-3.481-2.559-6.632-2.62-9.827   c0.333-5.312,1.092-9.492,2.382-13.132c1.426-4.022,3.489-8.395,6.306-13.366c1.452-2.562,3.218-5.122,5.088-7.832   c1.216-1.763,2.474-3.586,3.694-5.484c0.731-1.138,1.221-2.408,1.446-3.73c1.404-0.89,3.515-1.609,6.89-1.78   c4.594-0.234,9.886,0.434,15.031,1.26c1.102,2,1.981,4.504,2.89,7.546c1.022,3.425,1.766,7.175,2.553,11.145   c0.328,1.654,0.657,3.312,1.008,4.963c1.261,5.927,3.047,12.812,6.724,19.072c0.62,1.207,1.265,2.301,1.892,3.363   c0.652,1.106,1.36,2.306,1.79,3.285c-1.271,0.972-2.661,1.948-4.083,2.947c-1.742,1.223-3.542,2.488-5.325,3.88   c-8.648,6.754-12.852,14.768-12.852,24.499c0,1.875,0.527,3.711,1.521,5.301c0.994,1.59,1.92,3.317,2.9,5.145   c1.29,2.405,2.624,4.893,4.305,7.45c2.954,4.494,6.071,8.726,8.73,12.271c0.035,0.047,0.07,0.093,0.105,0.139l1.221,1.573   c3.153,4.07,6.13,7.914,9.631,11.548c2.882,2.992,5.908,5.516,8.834,7.956c1.253,1.045,2.514,2.096,3.759,3.186   c0.083,0.072,0.168,0.145,0.254,0.214c1.334,1.092,2.66,2.193,3.986,3.295c4.184,3.477,8.51,7.07,13.133,10.387   c6.069,4.354,12.597,8.126,19.949,11.526c4.226,2.03,8.423,1.278,10.694,0.872c0.271-0.048,0.533-0.103,0.782-0.135   c1.81-0.053,6.387-0.703,9.145-5.647c5.892-3.303,15.507-8.988,18.31-17.837c0.854-0.121,1.751-0.271,2.677-0.479   c0.766,0.347,1.531,0.691,2.296,1.035c2.987,1.344,5.81,2.613,8.552,3.963c2.59,1.273,5.136,2.71,7.832,4.229   c1.96,1.105,3.986,2.248,6.068,3.346c1.784,0.94,3.585,1.852,5.39,2.764c1.956,0.988,3.841,1.941,5.678,2.92   c0.499,0.573,1.066,1.092,1.692,1.542c0.036,0.026,0.072,0.052,0.108,0.077c1.265,0.885,2.317,1.959,2.398,6.152   C131.444,353.609,131.221,355.788,130.983,358.095z"/></g></svg>